<svg xmlns="http://www.w3.org/2000/svg" xmlns:xlink="http://www.w3.org/1999/xlink" xmlns:lucid="lucid" width="1219.15" height="631.71"><g transform="translate(-269.70641225282714 1.7060582245683236)" lucid:page-tab-id="0_0"><path d="M0 0h1870.87v1322.84H0z" fill="#fff"/><path d="M417.16 24.3a6 6 0 0 1 6-6h837.2a6 6 0 0 1 6 6v472.83a6 6 0 0 1-6 6h-837.2a6 6 0 0 1-6-6z" stroke="#232f3e" fill="#fff" fill-opacity="0"/><path d="M417.16 18.3h56v56h-56v-56z" stroke="#fff" stroke-opacity="0" fill="#232f3e"/><path d="M458.04 59.5h-25c-4.13.06-7.57-3.08-7.9-7.2v-.62c-.15-3.4 1.97-6.4 5.25-7.36v-.66c.1-4.22 2.43-7.76 6.23-9.58 4.12-1.84 8.72-.95 11.8 2.32 1.08 1.1 1.84 2.2 2.44 3.6 1.2-1 2.73-1.33 4.25-.9 2.24.8 3.68 2.74 3.76 5.1v-.02c3.68.66 6.32 3.8 6.28 7.58 0 7.07-7.04 7.72-7.12 7.75zm-26.7-13.86c-2.83.6-4.75 3.13-4.6 6.04v.52c.3 3.33 3.1 5.83 6.4 5.75h24.98c3.04-.3 5.4-2.63 5.68-5.7.28-3.42-2.24-6.48-5.68-6.77-.44-.05-.72-.45-.64-.87.08-1.84-1-3.45-2.72-4.13-1.32-.37-2.64.13-3.44 1.24-.2.24-.44.38-.76.32-.3-.05-.5-.24-.6-.5-.6-1.6-1.4-2.85-2.6-4.04-2.7-2.8-6.6-3.58-10.13-2-3.24 1.6-5.2 4.64-5.32 8.26-.03.4-.03.73 0 1.13.05.4-.2.77-.6.85z" stroke="#fff" stroke-opacity="0" fill="#fff"/><use xlink:href="#a" transform="matrix(1,0,0,1,488.1583206077789,38.293941775431676) translate(0 14.4)"/><use xlink:href="#b" transform="matrix(1,0,0,1,488.1583206077789,38.293941775431676) translate(45.3 14.4)"/><path d="M610.47 66.7a6 6 0 0 1 6-6h450.57a6 6 0 0 1 6 6v388a6 6 0 0 1-6 6H616.47a6 6 0 0 1-6-6z" stroke="#248814" fill="#fff" fill-opacity="0"/><path d="M610.47 60.7h56v56h-56v-56z" stroke="#fff" stroke-opacity="0" fill="#248814"/><path d="M642.23 89.02h-1.18v-1.1c-.12-1.74-1.48-3.08-3.2-3.2-1.9-.13-3.54 1.3-3.67 3.2v1.06H633c-.45 0-.8.36-.8.8v6.13c0 .45.35.8.8.8h9.23c.44 0 .8-.35.8-.8v-6.08c0-.44-.36-.8-.8-.8zm-6.4-1.07c.1-1.02 1-1.77 2-1.67.9.08 1.58.77 1.67 1.67v1.07h-3.72zm5.65 7.08h-7.68V90.6h7.63z" stroke="#fff" stroke-opacity="0" fill="#fff"/><path d="M652.74 86.46c-.1-2.45-1.58-4.48-3.87-5.3-1.58-.47-3.16-.14-4.4.9-.68-1.45-1.47-2.6-2.6-3.76-3.24-3.35-7.94-4.28-12.18-2.4-4.05 1.9-6.42 5.64-6.55 10.06v.72c-3.4.96-5.66 4.06-5.5 7.63v.64c.38 4.28 3.92 7.52 8.2 7.47h26s7.42-.62 7.42-8.1c.04-3.9-2.66-7.2-6.53-7.84zm-.96 14.38h-25.92c-3.46.06-6.28-2.52-6.58-5.95v-.54c-.16-3.04 1.92-5.7 4.9-6.3.4-.12.64-.48.6-.9-.05-.4-.05-.73 0-1.14.08-3.8 2.12-6.95 5.53-8.6 1.26-.57 2.42-.82 3.84-.85 2.62.1 4.87 1.05 6.7 2.94 1.25 1.3 2.04 2.62 2.62 4.32.04.14.12.28.25.36.38.27.88.2 1.13-.17.83-1.17 2.25-1.66 3.62-1.28 1.8.72 2.87 2.4 2.83 4.3-.08.42.2.84.63.92 3.58.36 6.2 3.54 5.83 7.1-.3 3.14-2.7 5.53-5.82 5.86z" stroke="#fff" stroke-opacity="0" fill="#fff"/><use xlink:href="#c" transform="matrix(1,0,0,1,681.4697647904136,80.71190423128104) translate(0 14.4)"/><use xlink:href="#d" transform="matrix(1,0,0,1,681.4697647904136,80.71190423128104) translate(55.5 14.4)"/><use xlink:href="#e" transform="matrix(1,0,0,1,681.4697647904136,80.71190423128104) translate(116.4 14.4)"/><path d="M720.08 137.56a6 6 0 0 1 6-6H988.8a6 6 0 0 1 6 6v260.02a6 6 0 0 1-6 6H726.1a6 6 0 0 1-6-6z" fill="#fff" fill-opacity="0"/><path d="M723.8 132.03l.43-.18.9-.22.95-.07h2m3.97 0h3.98m3.98 0h4m3.97 0h4m3.97 0h3.98m3.98 0h3.98m3.98 0h3.98m3.98 0h3.98m3.98 0h3.98m3.98 0h4m3.97 0h4m3.97 0h3.98m3.98 0h3.98m4 0h3.97m3.98 0h3.98m3.98 0h4m3.98 0h3.98m3.98 0h3.98m3.98 0h3.98m3.98 0h3.98m3.98 0h3.98m3.98 0h3.98m4 0h3.97m3.98 0h4m3.97 0h3.98m3.98 0h3.98m4 0h3.97m3.98 0h3.98m4 0H951m3.98 0h3.98m3.98 0h3.98m3.98 0h3.98m3.98 0h3.98m3.98 0h2l.93.07.92.22.43.18m3.24 3.24l.18.43.22.92.07.94v1.97m0 3.94v3.94m0 3.95v3.94m0 3.93v3.94m0 3.94v3.95m0 3.94v3.93m0 3.94v3.94m0 3.94v3.94m0 3.94v3.94m0 3.94v3.94m0 3.94v3.94m0 3.94v3.94m0 3.94v3.94m0 3.94v3.94m0 3.94v3.94m0 3.94v3.94m0 3.94v3.94m0 3.94v3.94m0 3.94v3.94m0 3.94v3.94m0 3.94v3.94m0 3.94V305m0 3.94v3.94m0 3.94v3.94m0 3.94v3.94m0 3.94v3.94m0 3.94v3.94m0 3.94v3.94m0 3.94v3.94m0 3.94v3.94m0 3.94v3.94m0 3.94v3.94m0 3.94v3.94m0 3.94v1.96l-.06.94-.22.92-.18.43m-3.24 3.24l-.43.2-.92.2-.94.08h-1.98m-3.98 0h-3.98m-3.98 0h-3.98m-3.98 0h-3.98m-3.98 0h-3.98m-3.98 0h-4m-3.97 0h-3.98m-3.98 0h-3.98m-4 0h-3.97m-3.98 0h-3.98m-3.98 0h-4m-3.97 0h-4m-3.97 0h-3.98m-3.98 0h-3.98m-3.98 0h-3.98m-3.98 0h-3.98m-3.98 0h-3.98m-3.98 0h-4m-3.97 0h-4m-3.97 0h-3.98m-3.98 0h-3.98m-4 0h-3.97m-3.98 0h-3.98m-3.98 0h-4m-3.98 0h-3.98m-3.98 0h-3.98m-3.98 0h-3.98m-3.98 0h-3.98m-3.98 0h-3.98m-3.98 0h-3.98m-4 0H748m-3.98 0h-4m-3.97 0h-3.98m-3.98 0h-2l-.93-.07-.9-.2-.45-.2m-3.25-3.23l-.18-.43-.22-.92-.07-.94v-1.96m0-3.94v-3.94m0-3.94v-3.94m0-3.94v-3.94m0-3.94v-3.94m0-3.94v-3.94m0-3.94v-3.94m0-3.94v-3.94m0-3.94v-3.94m0-3.94v-3.94m0-3.94v-3.94m0-3.94v-3.94m0-3.94v-3.94m0-3.94v-3.94m0-3.94v-3.94m0-3.94v-3.94m0-3.94v-3.94m0-3.94v-3.94m0-3.94v-3.94m0-3.94v-3.94m0-3.94v-3.94m0-3.94v-3.94m0-3.94v-3.94m0-3.94v-3.94m0-3.94v-3.94m0-3.94v-3.94m0-3.94v-3.94m0-3.94v-3.94m0-3.94V175m0-3.95v-3.94m0-3.93v-3.94m0-3.94v-3.95m0-3.94v-3.93m0-3.94v-1.97l.07-.94.22-.92.18-.43" stroke="#d86613" fill="none"/><path d="M720.08 131.56h56v56h-56v-56z" stroke="#fff" stroke-opacity="0" stroke-width="2" fill="#d86613"/><path d="M765.25 161.8h-3.74v-1.5h3.75v-17.93h-17.93v3.75h-1.5v-3.75c0-.8.68-1.48 1.5-1.48h17.93c.82 0 1.5.66 1.5 1.47v17.94c0 .83-.68 1.5-1.5 1.5zM748.83 178.22H730.9c-.82 0-1.5-.66-1.5-1.48V158.8c0-.8.68-1.48 1.5-1.48h3.73v1.48h-3.74v17.94h17.93V173h1.48v3.74c0 .8-.66 1.48-1.47 1.48z" stroke="#fff" stroke-opacity="0" stroke-width="2" fill="#fff"/><path d="M760.03 152.84v-1.5h-2.25c-.05-.8-.7-1.44-1.48-1.48v-2.25h-1.5v2.26h-2.23v-2.25h-1.5v2.26h-2.25v-2.25h-1.48v2.26h-2.25v-2.25h-1.5v2.26h-2.23v-2.25h-1.5v2.26c-.8.04-1.44.7-1.5 1.48h-2.24v1.5h2.25v2.25h-2.25v1.47h2.25v2.25h-2.25v1.48h2.25v2.24h-2.25v1.5h2.25v2.23h-2.25v1.5h2.25c.05.8.7 1.44 1.48 1.5v2.23h1.5v-2.24h2.25v2.24h1.5v-2.24h2.24v2.24h1.48v-2.24h2.25v2.24h1.5v-2.24h2.22v2.24h1.5v-2.24c.8-.05 1.43-.7 1.48-1.48h2.25v-1.5h-2.25v-2.23h2.25v-1.5h-2.25v-2.25h2.25v-1.48h-2.25v-2.25h2.25v-1.48h-2.25v-2.26zm-3.73 14.8c0 .07-.07.14-.14.14H740c-.07 0-.14-.07-.14-.15v-16.15c0-.07.07-.14.14-.14h16.16c.07 0 .14.07.14.14z" stroke="#fff" stroke-opacity="0" stroke-width="2" fill="#fff"/><use xlink:href="#f" transform="matrix(1,0,0,1,791.0796801688371,151.55744498243706) translate(0 14.4)"/><use xlink:href="#g" transform="matrix(1,0,0,1,791.0796801688371,151.55744498243706) translate(41.95 14.4)"/><use xlink:href="#h" transform="matrix(1,0,0,1,791.0796801688371,151.55744498243706) translate(81.9 14.4)"/><path d="M1308.4 90.3a6 6 0 0 1 6-6h148.46a6 6 0 0 1 6 6v354.53a6 6 0 0 1-6 6H1314.4a6 6 0 0 1-6-6z" fill="#fff" fill-opacity="0"/><path d="M1312.1 84.78l.44-.18.92-.22.94-.07h1.95m3.9 0h3.9m3.92 0h3.9m3.9 0h3.92m3.9 0h3.9m3.9 0h3.92m3.9 0h3.9m3.92 0h3.9m3.9 0h3.92m3.9 0h3.9m3.92 0h3.9m3.9 0h3.92m3.9 0h3.92m3.9 0h3.9m3.92 0h3.9m3.9 0h3.92m3.9 0h3.9m3.92 0h3.9m3.9 0h3.92m3.9 0h1.96l.94.08.9.22.45.18m3.24 3.24l.17.43.22.92.06.94v2.02m0 4.03v4.03m0 4.03v4.04m0 4.03v4.03m0 4.02v4.03m0 4.03v4.03m0 4.04v4.03m0 4.03v4.03m0 4.02v4.03m0 4.03v4.04m0 4.03v4.03m0 4.03v4.02m0 4.03V189m0 4.04v4.03m0 4.03v4.03m0 4.03v4.02m0 4.03v4.04m0 4.03v4.03m0 4.03v4.03m0 4.02v4.03m0 4.04v4.03m0 4.03v4.03m0 4.03v4.02m0 4.03v4.04m0 4.03v4.03m0 4.03v4.03m0 4.03v4m0 4.04v4.03m0 4.03v4.03m0 4.03V326m0 4.02v4.02m0 4.03v4.03m0 4.03v4.03m0 4.03v4.02m0 4.02v4.03m0 4.03v4.03m0 4.03v4.03m0 4.02v4.03m0 4.03v4.02m0 4.03v4.03m0 4.03v4.02m0 4.03v4.03m0 4.02v4.03m0 4.03v4.03m0 4.02v2l-.07.95-.23.92-.18.42m-3.25 3.24l-.44.18-.9.22-.94.07h-1.95m-3.9 0h-3.9m-3.9 0h-3.92m-3.9 0h-3.92m-3.9 0h-3.9m-3.92 0h-3.9m-3.9 0H1414m-3.9 0h-3.9m-3.92 0h-3.9m-3.9 0h-3.92m-3.9 0h-3.9m-3.92 0h-3.9m-3.9 0h-3.92m-3.9 0h-3.9m-3.92 0h-3.9m-3.9 0h-3.92m-3.9 0h-3.92m-3.9 0h-3.9m-3.92 0h-3.9m-3.9 0h-1.96l-.94-.07-.92-.22-.43-.18m-3.23-3.24l-.18-.43-.23-.93-.07-.94v-2m0-4.04v-4.04m0-4.03v-4.03m0-4.02v-4.03m0-4.03v-4.03m0-4.04v-4.03m0-4.03v-4.02m0-4.03v-4.03m0-4.03v-4.04m0-4.03v-4.03m0-4.03v-4.02m0-4.03v-4.03m0-4.04v-4.03m0-4.03v-4.03m0-4.03v-4.02m0-4.03v-4.04m0-4.03v-4.03m0-4.03v-4.03m0-4.02v-4.03m0-4.04v-4.03m0-4.03v-4.03m0-4.03v-4.03m0-4.02v-4.02m0-4.03v-4.03m0-4.03v-4.03m0-4.03v-4.02m0-4.02v-4.03m0-4.03v-4.03m0-4.03v-4.03m0-4.02v-4.03m0-4.02v-4.03m0-4.03v-4.03m0-4.03V185m0-4.03v-4.02m0-4.03v-4.03m0-4.03v-4.03m0-4.02v-4.03m0-4.03v-4.02m0-4.03v-4.03m0-4.03v-4.02m0-4.03v-4.03m0-4.02v-4.03m0-4.03v-4.03m0-4.02v-4.03m0-4.03v-2l.07-.95.22-.92.17-.43" stroke="#5a6c86" fill="none"/><use xlink:href="#i" transform="matrix(1,0,0,1,1308.39558893688,104.3085242684457) translate(4.1499999999999915 14.4)"/><use xlink:href="#j" transform="matrix(1,0,0,1,1308.39558893688,104.3085242684457) translate(49.99999999999999 14.4)"/><use xlink:href="#k" transform="matrix(1,0,0,1,1308.39558893688,104.3085242684457) translate(96.95 14.4)"/><path d="M903.88 327.85c1.27 0 2.24.76 2.24 1.66v44.04c0 .9-.97 1.66-2.24 1.66H811c-1.25 0-2.23-.76-2.23-1.66V329.5c0-.9.98-1.65 2.24-1.65zm-90.73 44h88.6V331.2h-88.6zm30.47-8.77c-.58-.24-1.07-.62-1.46-1.1h-4.1v-3.35h3.62v-2.5h-3.6v-3.33h3.6v-2.55h-3.6v-3.32h3.6v-2.5h-3.6v-3.37h4.08c.4-.47.88-.85 1.46-1.1v-3.1H848v2.73h3.3v-2.75h4.5v2.74h3.3v-2.75h4.48v2.74h3.3v-2.75h4.4v3.12c.57.24 1.06.62 1.45 1.1h4.1v3.35h-3.6v2.5h3.6v3.33h-3.6v2.55h3.6v3.32h-3.6v2.5h3.6V362h-4.1c-.4.46-.88.84-1.46 1.08v3.12h-4.38v-2.74h-3.32v2.74h-4.48v-2.74h-3.3v2.74h-4.5v-2.74H848v2.74h-4.38zm2.53-2.98h22.6v-17.15h-22.6zm-27.74 7.57v-32.3h4.5v32.3zm11.7 0v-32.3h4.37v32.3zm50.32 0v-32.3h4.38v32.3zm11.6 0v-32.3h4.46v32.3zM888 188.16c1.2 0 2.1.76 2.1 1.67v44.57c0 .9-.9 1.67-2.1 1.67h-87.8c-1.2 0-2.1-.76-2.1-1.67v-44.57c0-.9.9-1.67 2.1-1.67zm-85.77 44.5h83.74v-41.1h-83.74zm28.8-8.85c-.55-.23-1-.62-1.38-1.1h-3.86v-3.4h3.4v-2.54h-3.4v-3.35h3.4v-2.58h-3.4v-3.35h3.4v-2.54h-3.4v-3.4h3.85c.37-.48.83-.87 1.38-1.1v-3.17h4.14v2.78h3.13v-2.78h4.24v2.78h3.13v-2.78h4.23v2.78h3.13v-2.78h4.14v3.16c.55.24 1 .63 1.38 1.1h3.86v3.4H859v2.55h3.4v3.35H859v2.6h3.4v3.34H859v2.54h3.4v3.4h-3.85c-.37.5-.83.87-1.38 1.1v3.17h-4.14v-2.78h-3.13v2.77h-4.23v-2.78h-3.13v2.77h-4.24v-2.78h-3.13v2.77h-4.14zm2.4-3h21.35v-17.36h-21.35zm-26.23 7.66v-32.69h4.23v32.7zm11.04 0v-32.69h4.14v32.7zm47.58 0v-32.69h4.14v32.7zm10.95 0v-32.69H881v32.7z" stroke="#000" stroke-opacity="0" fill="#d45b07"/><path d="M868.12 221.37a6 6 0 0 1 6-6h114.7a6 6 0 0 1 6 6v12.36a6 6 0 0 1-6 6H874.1a6 6 0 0 1-6-6z" stroke="#000" stroke-opacity="0" fill="#fff" fill-opacity="0"/><use xlink:href="#l" transform="matrix(1,0,0,1,873.1193935309602,220.37375280569404) translate(9.796296296296298 17.77777777777778)"/><use xlink:href="#m" transform="matrix(1,0,0,1,873.1193935309602,220.37375280569404) translate(67.69753086419753 17.77777777777778)"/><path d="M808.77 381.2a6 6 0 0 1 6-6h95.12a6 6 0 0 1 6 6v1.62a6 6 0 0 1-6 6h-95.13a6 6 0 0 1-6-6z" stroke="#000" stroke-opacity="0" fill="#fff" fill-opacity="0"/><use xlink:href="#n" transform="matrix(1,0,0,1,813.772687118013,380.2011355387332) translate(1.4691358024691326 17.77777777777778)"/><use xlink:href="#m" transform="matrix(1,0,0,1,813.772687118013,380.2011355387332) translate(57.0246913580247 17.77777777777778)"/><path d="M849.95 311.46h-1v-18.83h1zm-5.35-40.16h-1v-18.84h1z" stroke="#3a414a" stroke-width=".05" fill="#3a414a"/><path d="M848.74 251.96h-9.27l4.63-14.27z" fill="#3a414a"/><path d="M849.42 252.46H838.8l5.32-16.4zm-9.27-1h7.9l-3.95-12.15z" stroke="#3a414a" stroke-width=".05" fill="#3a414a"/><path d="M849.45 326.23l-4.63-14.27h9.27z" fill="#3a414a"/><path d="M849.45 327.85l-5.32-16.4h10.64zm-3.95-15.4l3.95 12.16 3.95-12.14z" stroke="#3a414a" stroke-width=".05" fill="#3a414a"/><use xlink:href="#o" transform="matrix(1,0,0,1,810.3072211440551,271.2950332621037) translate(0 14.222222222222223)"/><use xlink:href="#p" transform="matrix(1,0,0,1,810.3072211440551,271.2950332621037) translate(43.35802469135803 14.222222222222223)"/><path d="M675.8 252.67c17.32 0 31.37 13.7 31.37 30.6 0 16.88-14.05 30.6-31.37 30.6-17.3 0-31.36-13.72-31.36-30.6 0-16.9 14.05-30.6 31.36-30.6zm0 58.44c15.75 0 28.55-12.48 28.55-27.83 0-15.36-12.8-27.84-28.55-27.84-15.74 0-28.54 12.48-28.54 27.84s12.8 27.84 28.54 27.84zm18.57-19.5c.82 0 1.45.66 1.45 1.4v6.1c0 .75-.63 1.36-1.45 1.36h-6.2c-.76 0-1.4-.6-1.4-1.35V293c0-.74.64-1.4 1.4-1.4h1.18v-3.32h-5.9v3.3h1.07c.82 0 1.45.68 1.45 1.42v6.1c0 .75-.63 1.36-1.45 1.36h-6.2c-.82 0-1.45-.6-1.45-1.35V293c0-.74.63-1.4 1.44-1.4h2.34v-4.66c0-.8.62-1.4 1.38-1.4h2.32v-3.3h-17.07v3.3h2.33c.75 0 1.38.6 1.38 1.4v4.65h2.32c.8 0 1.44.66 1.44 1.4v6.1c0 .75-.63 1.36-1.44 1.36h-6.2c-.83 0-1.46-.6-1.46-1.35V293c0-.74.63-1.4 1.45-1.4h1.05v-3.32h-5.9v3.3h1.07c.82 0 1.44.68 1.44 1.42v6.1c0 .75-.62 1.36-1.44 1.36h-6.08c-.82 0-1.45-.6-1.45-1.35V293c0-.74.62-1.4 1.44-1.4h2.2v-4.66c0-.8.62-1.4 1.37-1.4h3.6v-4.72c0-.74.62-1.35 1.43-1.35h8.53v-3.3h-8.53c-.8 0-1.44-.67-1.44-1.4V263.8c0-.8.62-1.4 1.43-1.4h19.95c.8 0 1.44.6 1.44 1.4v10.96c0 .74-.63 1.4-1.44 1.4h-8.53v3.3h8.53c.8 0 1.44.63 1.44 1.36v4.7h3.58c.75 0 1.38.62 1.38 1.42v4.65zm-27.1-18.25h17.07v-8.13h-17.07zm1.26 24.36h3.4v-3.3h-3.4zm11.23 0h3.32v-3.3h-3.32zm9.85 0h3.4v-3.3h-3.4zm-30.98 0h3.26v-3.3h-3.26z" stroke="#000" stroke-opacity="0" fill="#4d27aa"/><use xlink:href="#q" transform="matrix(1,0,0,1,614.4417160729198,322.8601552480771) translate(1.0499999999999972 14.4)"/><use xlink:href="#r" transform="matrix(1,0,0,1,614.4417160729198,322.8601552480771) translate(6.049999999999997 14.4)"/><use xlink:href="#s" transform="matrix(1,0,0,1,614.4417160729198,322.8601552480771) translate(51.05 14.4)"/><path d="M388.52 155.3h60.07v60.07H388.5V155.3z" stroke="#fff" stroke-opacity="0" fill="#693cc5"/><path d="M410.38 189.7c1.06.37 2 .55 3.14.6v-.02c.7.06 1.34-.1 1.93-.53.46-.44.7-.97.66-1.6.07-.66-.14-1.24-.62-1.7-.63-.43-1.3-.6-2.04-.54-.9.02-1.67.07-2.56.18v-1.14l.3-4.94h6.03v1.33h-4.65l-.22 3.35c.56-.1 1.03-.15 1.6-.15 1.06-.07 2 .25 2.8.94.7.7 1.06 1.6 1 2.6.03 1.03-.37 1.95-1.17 2.6-.9.74-1.93 1.06-3.1 1.02-1.14 0-2.1-.2-3.15-.68zM423.46 184.9H423.76c1-.1 1.86.2 2.62.84.7.64 1.02 1.46.97 2.4.02 1.03-.4 1.92-1.2 2.58-.93.7-1.95 1.02-3.12.96-1.1 0-2.05-.2-3.07-.66v-1.32c1.04.37 1.97.55 3.07.58.72.06 1.35-.13 1.94-.55.47-.42.7-.97.67-1.6 0-1.34-.84-2-2.52-2-.56 0-1.04.02-1.6.08v-1.08l3.47-3.78h-4.86v-1.36h6.72v1.3z" stroke="#fff" stroke-opacity="0" fill="#fff"/><path d="M418.56 200.56c-.16 0-.3-.03-.42-.12-2.72-1.6-5.28-2.58-8.4-3.2-1.68-.3-7.2-1.6-7.2-5.6 0-1.8.7-3.03 1.6-4.54 1.4-2.05 2.1-4.12 2.2-6.58 0-2.37-.62-4.36-1.93-6.35-.2-.3-.15-.65.07-.94l1.28-1.6c.26-.3.67-.4 1.02-.18 1.73 1 3.4 1.45 5.42 1.48 2.2.03 4.08-.56 5.88-1.87.28-.2.67-.2.93 0 1.83 1.3 3.72 1.9 5.93 1.87 1.98-.03 3.68-.5 5.4-1.48.36-.2.78-.12 1.03.18l1.28 1.6c.23.26.26.65.07.94-1.3 1.96-1.88 3.98-1.9 6.35 0 2.84 1.14 4.8 2.16 6.58.9 1.5 1.6 2.73 1.6 4.53 0 4-5.5 5.3-7.2 5.6-3.1.63-5.67 1.58-8.4 3.2-.1.1-.24.13-.4.13zm-12.5-26.83c1.26 2.13 1.84 4.24 1.84 6.7 0 3.3-1.32 5.57-2.4 7.38-.8 1.43-1.35 2.38-1.35 3.74 0 2.85 4.9 3.9 5.86 4.07 3.18.63 5.74 1.6 8.52 3.2 2.8-1.6 5.38-2.57 8.52-3.2 1-.17 5.9-1.2 5.9-4.06 0-1.36-.55-2.3-1.4-3.73-1.04-1.8-2.4-4.08-2.4-7.37.05-2.46.62-4.57 1.9-6.7l-.5-.62c-1.8.93-3.56 1.37-5.6 1.37-2.38.03-4.4-.53-6.42-1.84-1.98 1.3-4.03 1.87-6.4 1.84-2.05 0-3.78-.44-5.6-1.36z" stroke="#fff" stroke-opacity="0" fill="#fff"/><path d="M418.57 205.36c-.2 0-.36-.04-.52-.16-2.84-2.04-5.6-3.28-9-4-6.6-1.2-10.53-4.84-10.53-9.65.08-2.44.72-4.52 2.12-6.56.88-1.5 1.6-2.77 1.6-4.53-.08-2.44-1.08-4.48-2.92-6.13-.36-.24-.44-.76-.16-1.12.04 0 .04-.04.04-.04 0-.08 4.72-5.72 5.8-7.16.12-.24.36-.36.6-.36.28 0 .48.08.68.28 1.52 1.8 3.5 2.8 5.9 2.92 2.23 0 4-1 5.67-3.2.32-.36.88-.44 1.24-.12l.1.12c1.7 2.24 3.45 3.2 5.7 3.2 2.4-.12 4.35-1.12 5.87-2.92.2-.2.4-.28.68-.28.24 0 .48.12.6.36 1.08 1.44 5.77 7.08 5.8 7.16.13.16.2.36.17.6 0 .24-.12.4-.28.56-1.85 1.65-2.85 3.7-2.93 6.13 0 1.76.77 3.04 1.62 4.52 1.4 2.03 2.04 4.1 2.12 6.55 0 4.8-3.93 8.45-10.53 9.65-3.4.72-6.15 1.92-9 4-.1.08-.27.16-.43.16zM401 173.62c1.92 1.92 2.88 4.17 2.92 6.85 0 2.2-.92 3.8-1.84 5.36-.96 1.72-1.88 3.28-1.88 5.76 0 5.84 7 7.56 9.13 7.96 3.48.72 6.32 1.92 9.24 3.92 2.88-2 5.72-3.2 9.2-3.92 2.12-.4 9.13-2.12 9.13-7.97 0-2.5-.92-4-1.88-5.77-.93-1.6-1.85-3.2-1.85-5.36.04-2.68 1-4.93 2.93-6.85-1.1-1.28-3.5-4.2-4.77-5.84-1.8 1.76-3.92 2.68-6.4 2.76-2.6 0-4.8-1.08-6.4-3.08-1.64 2-3.84 3.08-6.44 3.08-2.5-.08-4.62-1-6.42-2.76-1.16 1.64-3.6 4.56-4.68 5.84z" stroke="#fff" stroke-opacity="0" fill="#fff"/><use xlink:href="#t" transform="matrix(1,0,0,1,358.5169189574995,224.37375280569404) translate(37.10493827160494 17.77777777777778)"/><path d="M385.05 335.5h67v68.08h-67V335.5z" stroke="#000" stroke-opacity="0" fill="url(#u)"/><path d="M435.7 370.62v-10.7h-2.12v7.47h-1.75l-1.75 1.04c-.88-1.44-2.3-2.57-3.92-3.05-1.43.64-3.14.6-4.56 0-2.77.82-4.7 3.35-4.9 6.27h6.32v2.14h-8.48c-.55 0-1.06-.47-1.06-1.08v-12.8h-15.86v15.3c0 .95.65 1.77 1.43 1.77h20.8v2.13h-20.8c-1.98 0-3.55-1.8-3.55-3.92v-23.03c0-2.14 1.57-3.93 3.55-3.93h35.27c1.94 0 3.5 1.8 3.5 3.93v18.45zm.14 20.3c-1.34.6-2.8.95-4.3.95-.4 0-.82-.04-1.2-.08-1.83-.23-3.58-.97-5-2.1-2.78-2.23-4.2-5.68-3.8-9.2.42-3.37 2.45-6.3 5.4-7.82 1.8-.92 3.83-1.3 5.8-1.05 3.33.4 6.24 2.44 7.76 5.45.92 1.84 1.3 3.84 1 5.85-.22 2-1 3.88-2.3 5.4-.92 1.06-2.07 1.97-3.36 2.6zm-3.32-17.2c-.32 0-.64-.04-.97-.04-1.3 0-2.5.3-3.64.87-2.34 1.22-3.9 3.54-4.23 6.2-.32 2.8.78 5.5 2.95 7.3 1.15.9 2.54 1.47 3.96 1.64 1.48.17 3-.1 4.34-.7 1-.5 1.93-1.23 2.67-2.06 1-1.22 1.65-2.66 1.84-4.27.18-1.57-.1-3.2-.83-4.63-1.2-2.35-3.5-3.97-6.08-4.32zm3.18-15.88v-5.67c0-.97-.64-1.8-1.38-1.8h-35.27c-.78 0-1.43.83-1.43 1.8v5.67h15.86v-4.28c0-.57.5-1.05 1.06-1.05h18.03c.55 0 1 .5 1 1.06v4.28zm-4.2-3.23h-15.9v13.2c1.02-1.9 2.68-3.42 4.75-4.25-.65-.82-.97-1.83-.97-2.88 0-2.66 2.12-4.8 4.75-4.8s4.75 2.14 4.75 4.8c0 1.14-.42 2.2-1.1 3.06 1.47.65 2.76 1.7 3.73 3zm-1.1 30.9c-.18.18-.46.3-.74.3-.27 0-.55-.12-.78-.3l-2.95-3 1.52-1.5 2.2 2.24 5.13-5.2 1.52 1.53zm-3.64-24.83c0-1.48-1.15-2.66-2.63-2.66s-2.67 1.2-2.67 2.67c0 .92.55 1.84 1.38 2.27.78.44 1.75.44 2.58 0 .83-.43 1.34-1.35 1.34-2.27zm-27.02 4.63v-2.14h9.5v2.14zm0 5.32v-2.13h6.37v2.12zm7.43 0v-2.13h3.13v2.12z" stroke="#000" stroke-opacity="0" fill="#fff"/><use xlink:href="#v" transform="matrix(1,0,0,1,355.0491411574575,412.5846048922187) translate(7.049999999999997 14.4)"/><path d="M1151.43 246.73h71.4v64.1h-71.4v-64.1z" stroke="#000" stroke-opacity="0" fill="url(#w)"/><path d="M1183.77 284.75c-.53 1.48-2.07 2.6-3.94 2.6-2.25 0-4.07-1.6-4.07-3.6s1.82-3.65 4.07-3.65c.24 0 .44.04.63.04l4.32-6.2c-.72-.7-1.16-1.57-1.16-2.57 0-2 1.83-3.6 4.08-3.6 2.26 0 4.08 1.6 4.08 3.6 0 1.04-.48 1.96-1.25 2.6l3.4 6.17c.15 0 .35-.04.54-.04 2.25 0 4.08 1.65 4.08 3.65s-1.83 3.6-4.08 3.6c-1.87 0-3.4-1.12-3.9-2.6zm27.2-15.06l-3.8-1.13c4.52 7.57 3.66 17.18-2.53 23.4-4.37 4.43-10.8 6.8-17.27 6.8-3.5 0-7.06-.72-10.32-2.16l1.06-1.76c8.3 3.73 18.77 1.97 24.86-4.2 5.6-5.6 6.3-14.7 1.92-21.55l-1.5 3.95-2.1-.64 2.26-5.95c.2-.52.8-.8 1.4-.65l6.75 2zm-40.78 17.25l.6-3.4 2.27.36-1.15 5.98c-.05.28-.24.56-.53.72-.16.08-.4.12-.6.12-.08 0-.23 0-.32-.04l-6.77-2 .73-1.9 3.8 1.13c-4.47-7.36-3.56-16.2 2.58-22.42 6.78-6.8 18.4-8.73 27.55-4.6l-1.05 1.76c-8.25-3.72-18.67-1.96-24.8 4.17-5.48 5.57-6.3 13.54-2.3 20.15zm16.54-12.05l-4.22 6.13c.58.44 1 1.04 1.25 1.72h6.8c.2-.72.68-1.32 1.3-1.8l-3.3-6c-.3.03-.58.07-.87.07-.33 0-.62-.04-.96-.12zm9.55 8.85c0-.92-.83-1.64-1.83-1.64s-1.83.73-1.83 1.65c0 .88.82 1.6 1.83 1.6 1 0 1.82-.72 1.82-1.6zm-18.3 0c0 .88.83 1.6 1.83 1.6s1.83-.72 1.83-1.6c0-.92-.82-1.64-1.83-1.64-1 0-1.82.73-1.82 1.65zm9.7-13.98c-1 0-1.82.72-1.82 1.6 0 .92.8 1.64 1.82 1.64 1 0 1.83-.7 1.83-1.63 0-.88-.82-1.6-1.83-1.6z" stroke="#000" stroke-opacity="0" fill="#fff"/><use xlink:href="#x" transform="matrix(1,0,0,1,1121.4312312279526,319.8162395117645) translate(7.350000000000001 14.4)"/><use xlink:href="#y" transform="matrix(1,0,0,1,1121.4312312279526,319.8162395117645) translate(52.65 14.4)"/><path d="M1146.74 67.47h64.1v64.1h-64.1v-64.1z" stroke="#fff" stroke-opacity="0" stroke-width="2" fill="#3b48cc"/><path d="M1189.7 102.07l-5.68 5.63c1.07-.3 1.95-.64 2.93-1.2.6.35.9.9 1.02 1.54 0 1.58-3.3 3.3-8.22 3.97-1.63.23-2.97.3-4.6.3h-.84c-6.9-.1-11.96-2.3-11.96-4.26.1-.64.43-1.15 1.02-1.53 2.67 1.5 7.03 2.4 11.8 2.4h.08l.5-1.7h-.6c-4.7 0-9.05-.95-11.35-2.4-.94-.6-1.46-1.28-1.46-1.84V99c2.6 2 7.82 3.03 12.82 3.03.66 0 1.33 0 2-.05l.5-1.7c-.88.04-1.66.08-2.5.08-7.33 0-12.82-2.26-12.82-4.27.1-.7.43-1.2 1.02-1.55 2.35 1.33 5.98 2.14 10.08 2.35l.06-1.7c-4.04-.22-7.7-1.07-9.7-2.4-.94-.55-1.43-1.23-1.46-1.83v-3.93c2.6 2 7.82 3.03 12.82 3.03h.17l.93-1.7h-1.1c-7.33 0-12.82-2.23-12.82-4.27 0-2 5.5-4.27 12.82-4.27 2.58 0 4.8.25 7.32.85h4.7c-2.58-1.58-7-2.56-12.03-2.56-7.03 0-14.53 2.1-14.53 5.98v6.87c.06 1.02.5 1.88 1.3 2.52-.8.67-1.24 1.52-1.3 2.55v6.83c.06 1.07.5 1.92 1.3 2.6-.8.64-1.24 1.5-1.3 2.56v7c.24 3.76 7.6 5.77 14.54 5.77 6.94 0 14.3-2 14.53-5.8v-7c-.04-1.02-.5-1.92-1.32-2.56.8-.64 1.25-1.54 1.3-2.56zm-1.73 12.8c0 2-5.5 4.27-12.82 4.27s-12.8-2.22-12.8-4.27v-3.92c2.6 1.96 7.8 3.03 12.8 3.03 5 0 10.2-1.07 12.82-3.03z" stroke="#fff" stroke-opacity="0" stroke-width="2" fill="#fff"/><path d="M1165.97 91c0 .58-.48 1.06-1.07 1.06-.6 0-1.07-.48-1.07-1.07 0-.6.48-1.08 1.07-1.08.6 0 1.07.48 1.07 1.07zM1165.97 102.95c0 .6-.48 1.07-1.07 1.07-.6 0-1.07-.48-1.07-1.07 0-.6.48-1.07 1.07-1.07.6 0 1.07.48 1.07 1.07zM1165.97 114.9c0 .6-.48 1.08-1.07 1.08-.6 0-1.07-.48-1.07-1.07 0-.58.48-1.06 1.07-1.06.6 0 1.07.48 1.07 1.07zM1177.28 111.46c-.15 0-.28-.03-.42-.12-.35-.2-.5-.6-.4-.98l4.8-16h-4.83c-.48.03-.86-.35-.86-.84 0-.15.02-.3.1-.4l5.12-10.27c.14-.3.42-.47.77-.47h11.1c.48-.03.87.35.9.82 0 .1 0 .2-.03.32l-2.2 6.54h4.8-.02c.48.03.86.4.86.87 0 .23-.08.4-.23.58l-18.8 19.67c-.17.2-.4.3-.67.3zm.54-18.78h4.6c.28 0 .52.1.7.32.14.23.2.5.12.75l-4.12 13.67 14.97-15.62h-4c-.46 0-.87-.35-.9-.8 0-.13 0-.24.05-.33l2.2-6.57h-9.4z" stroke="#fff" stroke-opacity="0" stroke-width="2" fill="#fff"/><use xlink:href="#z" transform="matrix(1,0,0,1,1116.7425203435132,140.55744498243706) translate(21.79012345679012 17.77777777777778)"/><use xlink:href="#A" transform="matrix(1,0,0,1,1116.7425203435132,140.55744498243706) translate(5.802469135802468 44.44444444444444)"/><path d="M1163.25 393.82h61.42v61.43h-61.42V393.8z" stroke="#fff" stroke-opacity="0" stroke-width="2" fill="#3b48cc"/><path d="M1202.94 416.94c0-2.36-4.66-3.47-9.02-3.47-4.35 0-9 1.1-9 3.47 0 .13 0 .22.03.36v14.77c-.04 2.47 4.64 3.5 9 3.5 4.4 0 9.02-1.07 9.02-3.44v-15.2zm-9-1.83c4.77 0 7.37 1.3 7.37 1.84 0 .53-2.57 1.84-7.36 1.84-4.8 0-7.37-1.28-7.37-1.84 0-.53 2.6-1.83 7.37-1.83zm7.37 17.03c0 .53-2.57 1.82-7.36 1.82-4.78 0-7.37-1.3-7.37-1.82v-2.58c1.72.95 4.63 1.4 7.37 1.4 2.75 0 5.62-.45 7.37-1.38zm0-4.66c0 .53-2.57 1.83-7.36 1.83-4.8 0-7.37-1.3-7.37-1.83h.02v-3.12c1.73.93 4.62 1.37 7.36 1.37 2.75 0 5.62-.44 7.37-1.35zm0-5.22c0 .53-2.57 1.86-7.36 1.86-4.8 0-7.37-1.32-7.37-1.85h.02v-3.2c1.75.94 4.6 1.36 7.36 1.36 2.76 0 5.67-.43 7.37-1.38zM1176.28 443.38h5.4v1.64h-7.37c-.44 0-.8-.37-.8-.83v-7.38h1.62v5.4l6.15-6.15 1.15 1.16zM1214.44 436.83v7.36c0 .45-.37.82-.83.82h-7.35v-1.64h5.4l-6.06-6.07 1.15-1.14 6.05 6.05v-5.37zM1214.44 404.9v7.36h-1.64v-5.4l-6.05 6.05-1.16-1.15 6.03-6.05h-5.38v-1.63h7.36c.47 0 .84.36.84.82zM1182.42 411.84l-1.15 1.15-6.15-6.15v5.4h-1.63v-7.38c0-.45.36-.82.8-.82h7.38v1.64h-5.4zM1181.4 431.87c-5-1.8-7.87-4.55-7.87-7.54 0-3 2.87-5.73 7.87-7.54l.56 1.53c-4.25 1.54-6.8 3.77-6.8 6s2.55 4.47 6.8 6zM1206.07 432.05l-.53-1.56c4.55-1.54 7.26-3.84 7.26-6.17s-2.7-4.63-7.26-6.18l.53-1.54c5.32 1.8 8.37 4.63 8.37 7.73 0 3.1-3.05 5.92-8.37 7.72z" stroke="#fff" stroke-opacity="0" stroke-width="2" fill="#fff"/><use xlink:href="#z" transform="matrix(1,0,0,1,1133.2535296995193,464.2445428792917) translate(20.29012345679012 17.77777777777778)"/><use xlink:href="#B" transform="matrix(1,0,0,1,1133.2535296995193,464.2445428792917) translate(37.60493827160494 44.44444444444444)"/><path d="M1380.2 262.75c.27.26.47.38.82.5.28.07.62.07.9 0 .27-.05.55-.18.83-.43.2-.2.34-.44.4-.76l2.43-8.66 10.77-40.95c.07-.2.14-.38.35-.57.13-.13.4-.2.62-.2.2 0 .48.07.62.2.2.2.27.38.34.57l1.18 3.16c.4 1.14 1.1 2.1 1.93 2.9.9.84 1.92 1.4 3.1 1.66l10.08 2.78c.97.3 1.87.82 2.5 1.64.68.76 1.02 1.7 1.16 2.72.07 1.2-.14 2.46-.62 3.54-.4 1.13-1.17 2.15-2.07 2.97l-2.5 2.16c-2 1.77-3.44 4.1-4.06 6.7-.7 2.6-.57 5.3.33 7.77l4.15 11.7c.07.25.2.5.4.7.22.18.5.3.77.43.2.06.55.06.83.06.28-.06.48-.12.76-.3 5.18-3.87 9.25-9.1 11.67-15.18 2.36-6.07 3.05-12.7 1.87-19.1-1.24-6.88-4.48-13.2-9.32-18.2-4.83-4.92-11.05-8.33-17.82-9.72-4.7-.95-9.6-.95-14.3.12-4.7 1-9.17 3.04-13.04 5.88-3.88 2.84-7.13 6.5-9.54 10.75-2.42 4.17-3.94 8.84-4.5 13.65 0 .38 0 .82.15 1.2.14.38.35.7.63 1 .28.26.7.5 1.04.64.4.13.82.13 1.17.06 1.38-.12 2.76.07 4 .5 1.32.45 2.5 1.15 3.53 2.03.96.95 1.8 2.1 2.34 3.35.57 1.27.84 2.6.84 3.98v5.06c.07 5.06 1.94 9.92 5.25 13.7z" stroke="#000" stroke-opacity="0" stroke-width="3.75" fill="#25392b"/><path d="M1404.02 229.64c1.72 0 3.1-1.4 3.1-3.1 0-1.77-1.38-3.16-3.1-3.16-1.73 0-3.18 1.4-3.18 3.16 0 1.7 1.45 3.1 3.18 3.1z" stroke="#000" stroke-opacity="0" stroke-width="3.75" fill="#25392b"/><path d="M1317.97 296.14a6 6 0 0 1 6-6h138.9a6 6 0 0 1 6 6v8.68a6 6 0 0 1-6 6h-138.9a6 6 0 0 1-6-6z" stroke="#000" stroke-opacity="0" fill="#fff" fill-opacity="0"/><use xlink:href="#C" transform="matrix(1,0,0,1,1322.9691104938447,295.14257084392176) translate(18.123456790123456 17.77777777777778)"/><use xlink:href="#D" transform="matrix(1,0,0,1,1322.9691104938447,295.14257084392176) translate(38.4320987654321 44.44444444444444)"/><path d="M342.06 255.83c1.84 0 3.34 2.02 3.34 4.4v42.56c0 2.44-1.5 4.38-3.34 4.38h-49c-1.85 0-3.35-1.94-3.35-4.4v-42.55c0-2.38 1.5-4.4 3.35-4.4zm.78 46.96v-42.57c0-.58-.33-1.1-.78-1.1h-49c-.46 0-.8.52-.8 1.1v42.56c0 .56.34 1.07.8 1.07h49c.45 0 .78-.5.78-1.08zm-3.73-41.13c1 0 1.8 1.08 1.8 2.37v34.93c0 1.3-.8 2.38-1.8 2.38h-43.16c-.94 0-1.78-1.08-1.78-2.38v-34.93c0-1.3.84-2.38 1.78-2.38zm-42.38 36.36h41.67v-32.98H296.7zM342.06 310c1.84 0 3.34 2 3.34 4.38v9.07c0 2.38-1.5 4.4-3.34 4.4h-49c-1.85 0-3.35-2.02-3.35-4.4v-9.07c0-2.38 1.5-4.4 3.35-4.4zm.78 13.45v-9.07c0-.57-.33-1.08-.78-1.08h-49c-.46 0-.8.5-.8 1.08v9.07c0 .58.34 1.1.8 1.1h49c.45 0 .78-.52.78-1.1zm-1.9-6.12v3.25c0 .72-.44 1.3-1 1.3H326.3c-.56 0-1-.58-1-1.3v-3.25c0-.72.44-1.3 1-1.3h13.65c.55 0 1 .58 1 1.3z" stroke="#000" stroke-opacity="0" fill="#232f3d"/><path d="M289.72 303.24v20.16l3.34 3.26 50.02-.55 2.34-2.56v-63.32l-2.17-2.56-13.82-.2-36.98-.08-2.68 2.9z" stroke="#000" stroke-opacity="0" fill-opacity="0"/><use xlink:href="#E" transform="matrix(1,0,0,1,259.70641225282714,336.84835345726805) translate(35.075 14.4)"/><path d="M449.1 185.34h91.44a6 6 0 0 1 6 6v85.37a6 6 0 0 0 6 6h75.56" stroke="#3a414a" fill="none"/><path d="M449.1 185.84h-.5v-1h.5z" stroke="#3a414a" stroke-width=".05" fill="#3a414a"/><path d="M642.87 282.7l-14.27 4.64v-9.27z" stroke="#3a414a" fill="#3a414a"/><path d="M758.44 277.3l-.08.98-.24 1-.4.94-.52.87-.66.76-.78.67-.87.53-.95.4-1 .23-1 .07h-44.28v-1h44.25l.88-.07.84-.2.8-.33.73-.46.66-.55.56-.65.44-.74.33-.8.2-.83.07-.88v-13.58h1zm23.26-64.68h-17.74l-.88.06-.84.2-.8.34-.73.45-.65.56-.56.65-.46.74-.33.8-.2.84-.06.88v24.2h-1V218.1l.08-1 .24-1 .4-.94.52-.87.66-.78.78-.66.87-.54.93-.4 1-.23 1-.08h17.77z" stroke="#3a414a" stroke-width=".05" fill="#3a414a"/><path d="M707.68 283.77h-.55l.04-.5-.03-.5h.54z" fill="#3a414a"/><path d="M707.7 283.8h-.6l.04-.53-.03-.53h.6zm-.54-1l.03.47-.04.47h.5v-.95z" stroke="#3a414a" stroke-width=".05" fill="#3a414a"/><path d="M796.47 212.12l-14.27 4.63v-9.27z" fill="#3a414a"/><path d="M798.1 212.12l-16.4 5.32V206.8zm-15.4 3.94l12.15-3.94-12.15-3.95z" stroke="#3a414a" stroke-width=".05" fill="#3a414a"/><use xlink:href="#F" transform="matrix(1,0,0,1,739.71656824761,242.33470396730613) translate(0 14.222222222222223)"/><path d="M758.47 345.5l.07.88.2.84.33.8.45.74.56.65.66.57.74.45.8.33.83.2.9.07h28.4v1h-28.45l-1-.07-1-.24-.93-.38-.87-.53-.78-.68-.66-.77-.52-.87-.4-.95-.23-1-.08-1v-17.47h1zM753 282.86l.98.23.94.4.87.53.77.67.66.77.53.88.4.94.23 1 .07 1v17.47h-1V289.3l-.07-.9-.2-.83-.33-.8-.45-.73-.56-.66-.66-.56-.73-.45-.8-.33-.84-.2-.88-.07h-44.28v-1H752z" stroke="#3a414a" stroke-width=".05" fill="#3a414a"/><path d="M707.68 283.77h-.55l.04-.5-.03-.5h.54z" fill="#3a414a"/><path d="M707.7 283.8h-.6l.04-.53-.03-.53h.6zm-.54-1l.03.47-.04.47h.5v-.95z" stroke="#3a414a" stroke-width=".05" fill="#3a414a"/><path d="M807.15 351.52l-14.26 4.64v-9.27z" fill="#3a414a"/><path d="M808.77 351.52l-16.38 5.33V346.2zm-15.38 3.95l12.14-3.95-12.15-3.94z" stroke="#3a414a" stroke-width=".05" fill="#3a414a"/><use xlink:href="#G" transform="matrix(1,0,0,1,742.6868784715601,306.7291038039322) translate(0 14.222222222222223)"/><path d="M1178.8 147.94v82.4" stroke="#3a414a" fill="none"/><path d="M1178.8 133.18l4.62 14.26h-9.27zM1178.8 245.1l-4.65-14.25h9.27z" stroke="#3a414a" fill="#3a414a"/><path d="M1187.13 327.2v50.24" stroke="#3a414a" fill="none"/><path d="M1187.13 312.43l4.64 14.27h-9.27zM1187.13 392.2l-4.63-14.26h9.27z" stroke="#3a414a" fill="#3a414a"/><path d="M1146.87 424.53H1040.7a6 6 0 0 1-6-6v-61a6 6 0 0 0-6-6H922.5" stroke="#3a414a" fill="none"/><path d="M1161.63 424.53l-14.26 4.64v-9.27zM907.74 351.52L922 346.9v9.26z" stroke="#3a414a" fill="#3a414a"/><path d="M1429.97 231.72" stroke="#3a414a" fill="none"/><path stroke="#3a414a" stroke-width=".05" fill="#3a414a"/><path d="M1428.36 231.72l-14.27 4.64v-9.27z" stroke="#3a414a" fill="#3a414a"/><path d="M1391.36 231.4" stroke="#3a414a" fill="none"/><path stroke="#3a414a" stroke-width=".05" fill="#3a414a"/><path d="M1389.74 231.4l-14.26 4.65v-9.27z" stroke="#3a414a" fill="#3a414a"/><path d="M1146.24 100.02h-94.53l-.87.06-.83.2-.8.34-.74.45-.65.56-.55.65-.45.74-.33.8-.2.84-.08.88v240l-.08 1-.24 1-.4.94-.53.87-.66.77-.78.67-.87.52-.95.4-1 .23-1 .07H922.5v-1h117.18l.88-.06.83-.2.8-.34.73-.45.65-.56.56-.64.45-.74.33-.8.2-.84.06-.88v-240l.07-1 .24-1 .4-.94.53-.87.67-.78.77-.67.87-.53.95-.4.98-.23 1-.08h94.56z" stroke="#3a414a" stroke-width=".05" fill="#3a414a"/><path d="M1146.74 100.02h-.5v-1h.5z" fill="#3a414a"/><path d="M1146.77 100.04h-.57V99h.57zm-.5-1v.95h.45v-.96z" stroke="#3a414a" stroke-width=".05" fill="#3a414a"/><path d="M922 356.16l-14.26-4.64L922 346.9z" fill="#3a414a"/><path d="M922.5 356.85l-16.38-5.33 16.38-5.32zm-13.14-5.33l12.14 3.95v-7.9zM1015.8 211.7l.98.23.94.4.87.53.77.66.66.77.54.86.4.95.22 1 .07 1v54.65l.07.88.2.84.33.8.45.74.56.66.66.56.74.45.8.33.83.2.9.07h124.13v1h-124.18l-1-.07-1-.24-.93-.4-.87-.53-.78-.66-.66-.77-.52-.88-.4-.94-.23-1-.08-1v-54.64l-.07-.88-.2-.84-.33-.8-.45-.74-.56-.65-.66-.56-.73-.45-.8-.33-.84-.22-.88-.06H906.5v-1h108.3z" stroke="#3a414a" stroke-width=".05" fill="#3a414a"/><path d="M1151.43 279.27h-.5v-1h.5z" fill="#3a414a"/><path d="M1151.46 279.3h-.57v-1.05h.56zm-.52-1v.95h.47v-.95z" stroke="#3a414a" stroke-width=".05" fill="#3a414a"/><path d="M906 216.75l-14.27-4.63 14.27-4.64z" fill="#3a414a"/><path d="M906.5 217.44l-16.4-5.32 16.4-5.33zm-13.15-5.32l12.15 3.94v-7.9z" stroke="#3a414a" stroke-width=".05" fill="#3a414a"/><path d="M1360.78 231.75h-14.5a6 6 0 0 1-6-6V214.4a6 6 0 0 0-6-6h-262.8a6 6 0 0 1-6-6v-33.98a6 6 0 0 1 6-6h31.68a6 6 0 0 0 6-6v-33.5" stroke="#3a414a" fill="none"/><path d="M1361.3 231.82l.07.43h-.6v-1h.5zM1109.66 122.94h-1v-.52h1z" stroke="#3a414a" stroke-width=".05" fill="#3a414a"/><path d="M317.56 255.33v-64.46a6 6 0 0 1 6-6h48.57" stroke="#3a414a" fill="none"/><path d="M318.06 255.83h-1v-.5h1z" stroke="#3a414a" stroke-width=".05" fill="#3a414a"/><path d="M386.9 184.87l-14.27 4.64v-9.26z" stroke="#3a414a" fill="#3a414a"/><path d="M368.67 369.55a3.43 3.43 0 0 1-3.44-3.44v-70.83a3.43 3.43 0 0 0-3.43-3.43" stroke="#3a414a" fill="none"/><path d="M383.43 369.55l-14.26 4.63v-9.27zM347.04 291.84l14.26-4.63v9.28z" stroke="#3a414a" fill="#3a414a"/><path d="M452.56 369.55H669.8a6 6 0 0 0 6-6v-33.3" stroke="#3a414a" fill="none"/><path d="M452.57 370.05h-.5v-1h.5z" stroke="#3a414a" stroke-width=".05" fill="#3a414a"/><path d="M675.8 315.48l4.64 14.26h-9.27z" stroke="#3a414a" fill="#3a414a"/><path d="M418.55 404.08v33.5a6 6 0 0 0 6 6h338.22a6 6 0 0 0 6-6v-62.1a6 6 0 0 1 6-6h17.62" stroke="#3a414a" fill="none"/><path d="M419.05 404.1h-1v-.52h1z" stroke="#3a414a" stroke-width=".05" fill="#3a414a"/><path d="M807.15 369.48l-14.26 4.63v-9.26z" stroke="#3a414a" fill="#3a414a"/><path d="M1092.1 104.4a8.6 8.6 0 0 1 3-9.36l9.3-7.1a7.86 7.86 0 0 1 9.53 0l9.3 7.1a8.6 8.6 0 0 1 3 9.37l-3.66 11.8a8.14 8.14 0 0 1-7.77 5.72h-11.28a8.14 8.14 0 0 1-7.77-5.73z" stroke="#3a414a" fill="#fff"/><path d="M540.22 550.7a6 6 0 0 1 6-6h702.66a6 6 0 0 1 6 6V604a6 6 0 0 1-6 6H546.23a6 6 0 0 1-6-6z" stroke="#000" stroke-opacity="0" fill="#fff" fill-opacity="0"/><g><use xlink:href="#H" transform="matrix(1,0,0,1,545.2190258721364,549.6916367729596) translate(124.01851851851853 31.833333333333332)"/><use xlink:href="#I" transform="matrix(1,0,0,1,545.2190258721364,549.6916367729596) translate(265.7222222222223 31.833333333333332)"/><use xlink:href="#J" transform="matrix(1,0,0,1,545.2190258721364,549.6916367729596) translate(327.35185185185185 31.833333333333332)"/><use xlink:href="#K" transform="matrix(1,0,0,1,545.2190258721364,549.6916367729596) translate(453.94444444444446 31.833333333333332)"/></g><defs><path fill="#232f3e" d="M205 0l-28-72H64L36 0H1l101-248h38L239 0h-34zm-38-99l-47-123c-12 45-31 82-46 123h93" id="L"/><path fill="#232f3e" d="M266 0h-40l-56-210L115 0H75L2-248h35L96-30l15-64 43-154h32l59 218 59-218h35" id="M"/><path fill="#232f3e" d="M185-189c-5-48-123-54-124 2 14 75 158 14 163 119 3 78-121 87-175 55-17-10-28-26-33-46l33-7c5 56 141 63 141-1 0-78-155-14-162-118-5-82 145-84 179-34 5 7 8 16 11 25" id="N"/><g id="a"><use transform="matrix(0.05,0,0,0.05,0,0)" xlink:href="#L"/><use transform="matrix(0.05,0,0,0.05,11.35,0)" xlink:href="#M"/><use transform="matrix(0.05,0,0,0.05,28.299999999999997,0)" xlink:href="#N"/></g><path fill="#232f3e" d="M212-179c-10-28-35-45-73-45-59 0-87 40-87 99 0 60 29 101 89 101 43 0 62-24 78-52l27 14C228-24 195 4 139 4 59 4 22-46 18-125c-6-104 99-153 187-111 19 9 31 26 39 46" id="O"/><path fill="#232f3e" d="M24 0v-261h32V0H24" id="P"/><path fill="#232f3e" d="M100-194c62-1 85 37 85 99 1 63-27 99-86 99S16-35 15-95c0-66 28-99 85-99zM99-20c44 1 53-31 53-75 0-43-8-75-51-75s-53 32-53 75 10 74 51 75" id="Q"/><path fill="#232f3e" d="M84 4C-5 8 30-112 23-190h32v120c0 31 7 50 39 49 72-2 45-101 50-169h31l1 190h-30c-1-10 1-25-2-33-11 22-28 36-60 37" id="R"/><path fill="#232f3e" d="M85-194c31 0 48 13 60 33l-1-100h32l1 261h-30c-2-10 0-23-3-31C134-8 116 4 85 4 32 4 16-35 15-94c0-66 23-100 70-100zm9 24c-40 0-46 34-46 75 0 40 6 74 45 74 42 0 51-32 51-76 0-42-9-74-50-73" id="S"/><g id="b"><use transform="matrix(0.05,0,0,0.05,0,0)" xlink:href="#O"/><use transform="matrix(0.05,0,0,0.05,12.950000000000001,0)" xlink:href="#P"/><use transform="matrix(0.05,0,0,0.05,16.900000000000002,0)" xlink:href="#Q"/><use transform="matrix(0.05,0,0,0.05,26.900000000000002,0)" xlink:href="#R"/><use transform="matrix(0.05,0,0,0.05,36.900000000000006,0)" xlink:href="#S"/></g><path fill="#248814" d="M137 0h-34L2-248h35l83 218 83-218h36" id="T"/><path fill="#248814" d="M24-231v-30h32v30H24zM24 0v-190h32V0H24" id="U"/><path fill="#248814" d="M114-163C36-179 61-72 57 0H25l-1-190h30c1 12-1 29 2 39 6-27 23-49 58-41v29" id="V"/><path fill="#248814" d="M59-47c-2 24 18 29 38 22v24C64 9 27 4 27-40v-127H5v-23h24l9-43h21v43h35v23H59v120" id="W"/><path fill="#248814" d="M84 4C-5 8 30-112 23-190h32v120c0 31 7 50 39 49 72-2 45-101 50-169h31l1 190h-30c-1-10 1-25-2-33-11 22-28 36-60 37" id="X"/><path fill="#248814" d="M141-36C126-15 110 5 73 4 37 3 15-17 15-53c-1-64 63-63 125-63 3-35-9-54-41-54-24 1-41 7-42 31l-33-3c5-37 33-52 76-52 45 0 72 20 72 64v82c-1 20 7 32 28 27v20c-31 9-61-2-59-35zM48-53c0 20 12 33 32 33 41-3 63-29 60-74-43 2-92-5-92 41" id="Y"/><path fill="#248814" d="M24 0v-261h32V0H24" id="Z"/><g id="c"><use transform="matrix(0.05,0,0,0.05,0,0)" xlink:href="#T"/><use transform="matrix(0.05,0,0,0.05,11.65,0)" xlink:href="#U"/><use transform="matrix(0.05,0,0,0.05,15.600000000000001,0)" xlink:href="#V"/><use transform="matrix(0.05,0,0,0.05,21.55,0)" xlink:href="#W"/><use transform="matrix(0.05,0,0,0.05,26.55,0)" xlink:href="#X"/><use transform="matrix(0.05,0,0,0.05,36.55,0)" xlink:href="#Y"/><use transform="matrix(0.05,0,0,0.05,46.55,0)" xlink:href="#Z"/></g><path fill="#248814" d="M30-248c87 1 191-15 191 75 0 78-77 80-158 76V0H30v-248zm33 125c57 0 124 11 124-50 0-59-68-47-124-48v98" id="aa"/><path fill="#248814" d="M108 0H70L1-190h34L89-25l56-165h34" id="ab"/><path fill="#248814" d="M100-194c63 0 86 42 84 106H49c0 40 14 67 53 68 26 1 43-12 49-29l28 8c-11 28-37 45-77 45C44 4 14-33 15-96c1-61 26-98 85-98zm52 81c6-60-76-77-97-28-3 7-6 17-6 28h103" id="ac"/><g id="d"><use transform="matrix(0.05,0,0,0.05,0,0)" xlink:href="#aa"/><use transform="matrix(0.05,0,0,0.05,12,0)" xlink:href="#V"/><use transform="matrix(0.05,0,0,0.05,17.95,0)" xlink:href="#U"/><use transform="matrix(0.05,0,0,0.05,21.9,0)" xlink:href="#ab"/><use transform="matrix(0.05,0,0,0.05,30.899999999999995,0)" xlink:href="#Y"/><use transform="matrix(0.05,0,0,0.05,40.9,0)" xlink:href="#W"/><use transform="matrix(0.05,0,0,0.05,45.9,0)" xlink:href="#ac"/></g><path fill="#248814" d="M212-179c-10-28-35-45-73-45-59 0-87 40-87 99 0 60 29 101 89 101 43 0 62-24 78-52l27 14C228-24 195 4 139 4 59 4 22-46 18-125c-6-104 99-153 187-111 19 9 31 26 39 46" id="ad"/><path fill="#248814" d="M100-194c62-1 85 37 85 99 1 63-27 99-86 99S16-35 15-95c0-66 28-99 85-99zM99-20c44 1 53-31 53-75 0-43-8-75-51-75s-53 32-53 75 10 74 51 75" id="ae"/><path fill="#248814" d="M85-194c31 0 48 13 60 33l-1-100h32l1 261h-30c-2-10 0-23-3-31C134-8 116 4 85 4 32 4 16-35 15-94c0-66 23-100 70-100zm9 24c-40 0-46 34-46 75 0 40 6 74 45 74 42 0 51-32 51-76 0-42-9-74-50-73" id="af"/><g id="e"><use transform="matrix(0.05,0,0,0.05,0,0)" xlink:href="#ad"/><use transform="matrix(0.05,0,0,0.05,12.950000000000001,0)" xlink:href="#Z"/><use transform="matrix(0.05,0,0,0.05,16.900000000000002,0)" xlink:href="#ae"/><use transform="matrix(0.05,0,0,0.05,26.900000000000002,0)" xlink:href="#X"/><use transform="matrix(0.05,0,0,0.05,36.900000000000006,0)" xlink:href="#af"/></g><path fill="#d86613" d="M30 0v-248h187v28H63v79h144v27H63v87h162V0H30" id="ag"/><path fill="#d86613" d="M212-179c-10-28-35-45-73-45-59 0-87 40-87 99 0 60 29 101 89 101 43 0 62-24 78-52l27 14C228-24 195 4 139 4 59 4 22-46 18-125c-6-104 99-153 187-111 19 9 31 26 39 46" id="ah"/><path fill="#d86613" d="M185-189c-5-48-123-54-124 2 14 75 158 14 163 119 3 78-121 87-175 55-17-10-28-26-33-46l33-7c5 56 141 63 141-1 0-78-155-14-162-118-5-82 145-84 179-34 5 7 8 16 11 25" id="ai"/><g id="f"><use transform="matrix(0.05,0,0,0.05,0,0)" xlink:href="#ag"/><use transform="matrix(0.05,0,0,0.05,12,0)" xlink:href="#ah"/><use transform="matrix(0.05,0,0,0.05,24.950000000000003,0)" xlink:href="#ai"/></g><path fill="#d86613" d="M101-251c82-7 93 87 43 132L82-64C71-53 59-42 53-27h129V0H18c2-99 128-94 128-182 0-28-16-43-45-43s-46 15-49 41l-32-3c6-41 34-60 81-64" id="aj"/><g id="g"><use transform="matrix(0.05,0,0,0.05,0,0)" xlink:href="#ag"/><use transform="matrix(0.05,0,0,0.05,12,0)" xlink:href="#ah"/><use transform="matrix(0.05,0,0,0.05,24.950000000000003,0)" xlink:href="#aj"/></g><path fill="#d86613" d="M100-194c62-1 85 37 85 99 1 63-27 99-86 99S16-35 15-95c0-66 28-99 85-99zM99-20c44 1 53-31 53-75 0-43-8-75-51-75s-53 32-53 75 10 74 51 75" id="ak"/><path fill="#d86613" d="M117-194c89-4 53 116 60 194h-32v-121c0-31-8-49-39-48C34-167 62-67 57 0H25l-1-190h30c1 10-1 24 2 32 11-22 29-35 61-36" id="al"/><path fill="#d86613" d="M59-47c-2 24 18 29 38 22v24C64 9 27 4 27-40v-127H5v-23h24l9-43h21v43h35v23H59v120" id="am"/><path fill="#d86613" d="M141-36C126-15 110 5 73 4 37 3 15-17 15-53c-1-64 63-63 125-63 3-35-9-54-41-54-24 1-41 7-42 31l-33-3c5-37 33-52 76-52 45 0 72 20 72 64v82c-1 20 7 32 28 27v20c-31 9-61-2-59-35zM48-53c0 20 12 33 32 33 41-3 63-29 60-74-43 2-92-5-92 41" id="an"/><path fill="#d86613" d="M24-231v-30h32v30H24zM24 0v-190h32V0H24" id="ao"/><path fill="#d86613" d="M100-194c63 0 86 42 84 106H49c0 40 14 67 53 68 26 1 43-12 49-29l28 8c-11 28-37 45-77 45C44 4 14-33 15-96c1-61 26-98 85-98zm52 81c6-60-76-77-97-28-3 7-6 17-6 28h103" id="ap"/><path fill="#d86613" d="M114-163C36-179 61-72 57 0H25l-1-190h30c1 12-1 29 2 39 6-27 23-49 58-41v29" id="aq"/><g id="h"><use transform="matrix(0.05,0,0,0.05,0,0)" xlink:href="#ah"/><use transform="matrix(0.05,0,0,0.05,12.950000000000001,0)" xlink:href="#ak"/><use transform="matrix(0.05,0,0,0.05,22.950000000000003,0)" xlink:href="#al"/><use transform="matrix(0.05,0,0,0.05,32.95,0)" xlink:href="#am"/><use transform="matrix(0.05,0,0,0.05,37.95,0)" xlink:href="#an"/><use transform="matrix(0.05,0,0,0.05,47.95,0)" xlink:href="#ao"/><use transform="matrix(0.05,0,0,0.05,51.900000000000006,0)" xlink:href="#al"/><use transform="matrix(0.05,0,0,0.05,61.900000000000006,0)" xlink:href="#ap"/><use transform="matrix(0.05,0,0,0.05,71.9,0)" xlink:href="#aq"/></g><path fill="#5a6c86" d="M127-220V0H93v-220H8v-28h204v28h-85" id="ar"/><path fill="#5a6c86" d="M106-169C34-169 62-67 57 0H25v-261h32l-1 103c12-21 28-36 61-36 89 0 53 116 60 194h-32v-121c2-32-8-49-39-48" id="as"/><path fill="#5a6c86" d="M24-231v-30h32v30H24zM24 0v-190h32V0H24" id="at"/><path fill="#5a6c86" d="M114-163C36-179 61-72 57 0H25l-1-190h30c1 12-1 29 2 39 6-27 23-49 58-41v29" id="au"/><path fill="#5a6c86" d="M85-194c31 0 48 13 60 33l-1-100h32l1 261h-30c-2-10 0-23-3-31C134-8 116 4 85 4 32 4 16-35 15-94c0-66 23-100 70-100zm9 24c-40 0-46 34-46 75 0 40 6 74 45 74 42 0 51-32 51-76 0-42-9-74-50-73" id="av"/><g id="i"><use transform="matrix(0.05,0,0,0.05,0,0)" xlink:href="#ar"/><use transform="matrix(0.05,0,0,0.05,10.950000000000001,0)" xlink:href="#as"/><use transform="matrix(0.05,0,0,0.05,20.950000000000003,0)" xlink:href="#at"/><use transform="matrix(0.05,0,0,0.05,24.900000000000002,0)" xlink:href="#au"/><use transform="matrix(0.05,0,0,0.05,30.85,0)" xlink:href="#av"/></g><path fill="#5a6c86" d="M30-248c87 1 191-15 191 75 0 78-77 80-158 76V0H30v-248zm33 125c57 0 124 11 124-50 0-59-68-47-124-48v98" id="aw"/><path fill="#5a6c86" d="M141-36C126-15 110 5 73 4 37 3 15-17 15-53c-1-64 63-63 125-63 3-35-9-54-41-54-24 1-41 7-42 31l-33-3c5-37 33-52 76-52 45 0 72 20 72 64v82c-1 20 7 32 28 27v20c-31 9-61-2-59-35zM48-53c0 20 12 33 32 33 41-3 63-29 60-74-43 2-92-5-92 41" id="ax"/><path fill="#5a6c86" d="M59-47c-2 24 18 29 38 22v24C64 9 27 4 27-40v-127H5v-23h24l9-43h21v43h35v23H59v120" id="ay"/><path fill="#5a6c86" d="M179-190L93 31C79 59 56 82 12 73V49c39 6 53-20 64-50L1-190h34L92-34l54-156h33" id="az"/><g id="j"><use transform="matrix(0.05,0,0,0.05,0,0)" xlink:href="#aw"/><use transform="matrix(0.05,0,0,0.05,12,0)" xlink:href="#ax"/><use transform="matrix(0.05,0,0,0.05,22,0)" xlink:href="#au"/><use transform="matrix(0.05,0,0,0.05,27.950000000000003,0)" xlink:href="#ay"/><use transform="matrix(0.05,0,0,0.05,32.95,0)" xlink:href="#az"/></g><path fill="#5a6c86" d="M185-189c-5-48-123-54-124 2 14 75 158 14 163 119 3 78-121 87-175 55-17-10-28-26-33-46l33-7c5 56 141 63 141-1 0-78-155-14-162-118-5-82 145-84 179-34 5 7 8 16 11 25" id="aA"/><path fill="#5a6c86" d="M100-194c63 0 86 42 84 106H49c0 40 14 67 53 68 26 1 43-12 49-29l28 8c-11 28-37 45-77 45C44 4 14-33 15-96c1-61 26-98 85-98zm52 81c6-60-76-77-97-28-3 7-6 17-6 28h103" id="aB"/><path fill="#5a6c86" d="M108 0H70L1-190h34L89-25l56-165h34" id="aC"/><path fill="#5a6c86" d="M96-169c-40 0-48 33-48 73s9 75 48 75c24 0 41-14 43-38l32 2c-6 37-31 61-74 61-59 0-76-41-82-99-10-93 101-131 147-64 4 7 5 14 7 22l-32 3c-4-21-16-35-41-35" id="aD"/><g id="k"><use transform="matrix(0.05,0,0,0.05,0,0)" xlink:href="#aA"/><use transform="matrix(0.05,0,0,0.05,12,0)" xlink:href="#aB"/><use transform="matrix(0.05,0,0,0.05,22,0)" xlink:href="#au"/><use transform="matrix(0.05,0,0,0.05,27.950000000000003,0)" xlink:href="#aC"/><use transform="matrix(0.05,0,0,0.05,36.95,0)" xlink:href="#at"/><use transform="matrix(0.05,0,0,0.05,40.900000000000006,0)" xlink:href="#aD"/><use transform="matrix(0.05,0,0,0.05,49.900000000000006,0)" xlink:href="#aB"/></g><path fill="#3a414a" d="M63-220v92h138v28H63V0H30v-248h175v28H63" id="aE"/><path fill="#3a414a" d="M114-163C36-179 61-72 57 0H25l-1-190h30c1 12-1 29 2 39 6-27 23-49 58-41v29" id="aF"/><path fill="#3a414a" d="M100-194c62-1 85 37 85 99 1 63-27 99-86 99S16-35 15-95c0-66 28-99 85-99zM99-20c44 1 53-31 53-75 0-43-8-75-51-75s-53 32-53 75 10 74 51 75" id="aG"/><path fill="#3a414a" d="M117-194c89-4 53 116 60 194h-32v-121c0-31-8-49-39-48C34-167 62-67 57 0H25l-1-190h30c1 10-1 24 2 32 11-22 29-35 61-36" id="aH"/><path fill="#3a414a" d="M59-47c-2 24 18 29 38 22v24C64 9 27 4 27-40v-127H5v-23h24l9-43h21v43h35v23H59v120" id="aI"/><g id="l"><use transform="matrix(0.06172839506172839,0,0,0.06172839506172839,0,0)" xlink:href="#aE"/><use transform="matrix(0.06172839506172839,0,0,0.06172839506172839,13.518518518518517,0)" xlink:href="#aF"/><use transform="matrix(0.06172839506172839,0,0,0.06172839506172839,20.864197530864196,0)" xlink:href="#aG"/><use transform="matrix(0.06172839506172839,0,0,0.06172839506172839,33.20987654320987,0)" xlink:href="#aH"/><use transform="matrix(0.06172839506172839,0,0,0.06172839506172839,45.55555555555555,0)" xlink:href="#aI"/></g><path fill="#3a414a" d="M30 0v-248h187v28H63v79h144v27H63v87h162V0H30" id="aJ"/><path fill="#3a414a" d="M85-194c31 0 48 13 60 33l-1-100h32l1 261h-30c-2-10 0-23-3-31C134-8 116 4 85 4 32 4 16-35 15-94c0-66 23-100 70-100zm9 24c-40 0-46 34-46 75 0 40 6 74 45 74 42 0 51-32 51-76 0-42-9-74-50-73" id="aK"/><g id="m"><use transform="matrix(0.06172839506172839,0,0,0.06172839506172839,0,0)" xlink:href="#aJ"/><use transform="matrix(0.06172839506172839,0,0,0.06172839506172839,14.814814814814813,0)" xlink:href="#aH"/><use transform="matrix(0.06172839506172839,0,0,0.06172839506172839,27.160493827160494,0)" xlink:href="#aK"/></g><path fill="#3a414a" d="M160-131c35 5 61 23 61 61C221 17 115-2 30 0v-248c76 3 177-17 177 60 0 33-19 50-47 57zm-97-11c50-1 110 9 110-42 0-47-63-36-110-37v79zm0 115c55-2 124 14 124-45 0-56-70-42-124-44v89" id="aL"/><path fill="#3a414a" d="M141-36C126-15 110 5 73 4 37 3 15-17 15-53c-1-64 63-63 125-63 3-35-9-54-41-54-24 1-41 7-42 31l-33-3c5-37 33-52 76-52 45 0 72 20 72 64v82c-1 20 7 32 28 27v20c-31 9-61-2-59-35zM48-53c0 20 12 33 32 33 41-3 63-29 60-74-43 2-92-5-92 41" id="aM"/><path fill="#3a414a" d="M96-169c-40 0-48 33-48 73s9 75 48 75c24 0 41-14 43-38l32 2c-6 37-31 61-74 61-59 0-76-41-82-99-10-93 101-131 147-64 4 7 5 14 7 22l-32 3c-4-21-16-35-41-35" id="aN"/><path fill="#3a414a" d="M143 0L79-87 56-68V0H24v-261h32v163l83-92h37l-77 82L181 0h-38" id="aO"/><g id="n"><use transform="matrix(0.06172839506172839,0,0,0.06172839506172839,0,0)" xlink:href="#aL"/><use transform="matrix(0.06172839506172839,0,0,0.06172839506172839,14.814814814814813,0)" xlink:href="#aM"/><use transform="matrix(0.06172839506172839,0,0,0.06172839506172839,27.160493827160494,0)" xlink:href="#aN"/><use transform="matrix(0.06172839506172839,0,0,0.06172839506172839,38.27160493827161,0)" xlink:href="#aO"/></g><path fill="#333" d="M240-174c0 40-23 61-54 70L253 0h-59l-57-94H76V0H24v-248c93 4 217-23 216 74zM76-134c48-2 112 12 112-38 0-48-66-32-112-35v73" id="aP"/><path fill="#333" d="M185-48c-13 30-37 53-82 52C43 2 14-33 14-96s30-98 90-98c62 0 83 45 84 108H66c0 31 8 55 39 56 18 0 30-7 34-22zm-45-69c5-46-57-63-70-21-2 6-4 13-4 21h74" id="aQ"/><path fill="#333" d="M137-138c1-29-70-34-71-4 15 46 118 7 119 86 1 83-164 76-172 9l43-7c4 19 20 25 44 25 33 8 57-30 24-41C81-84 22-81 20-136c-2-80 154-74 161-7" id="aR"/><path fill="#333" d="M115-3C79 11 28 4 28-45v-112H4v-33h27l15-45h31v45h36v33H77v99c-1 23 16 31 38 25v30" id="aS"/><g id="o"><use transform="matrix(0.04938271604938272,0,0,0.04938271604938272,0,0)" xlink:href="#aP"/><use transform="matrix(0.04938271604938272,0,0,0.04938271604938272,12.790123456790125,0)" xlink:href="#aQ"/><use transform="matrix(0.04938271604938272,0,0,0.04938271604938272,22.66666666666667,0)" xlink:href="#aR"/><use transform="matrix(0.04938271604938272,0,0,0.04938271604938272,32.543209876543216,0)" xlink:href="#aS"/></g><path fill="#333" d="M199 0l-22-63H83L61 0H9l90-248h61L250 0h-51zm-33-102l-36-108c-10 38-24 72-36 108h72" id="aT"/><path fill="#333" d="M24-248c93 1 206-16 204 79-1 75-69 88-152 82V0H24v-248zm52 121c47 0 100 7 100-41 0-47-54-39-100-39v80" id="aU"/><path fill="#333" d="M24 0v-248h52V0H24" id="aV"/><g id="p"><use transform="matrix(0.04938271604938272,0,0,0.04938271604938272,0,0)" xlink:href="#aT"/><use transform="matrix(0.04938271604938272,0,0,0.04938271604938272,12.790123456790125,0)" xlink:href="#aU"/><use transform="matrix(0.04938271604938272,0,0,0.04938271604938272,24.641975308641978,0)" xlink:href="#aV"/></g><path d="M30 0v-248h33v221h125V0H30" id="aW"/><path d="M100-194c62-1 85 37 85 99 1 63-27 99-86 99S16-35 15-95c0-66 28-99 85-99zM99-20c44 1 53-31 53-75 0-43-8-75-51-75s-53 32-53 75 10 74 51 75" id="aX"/><path d="M141-36C126-15 110 5 73 4 37 3 15-17 15-53c-1-64 63-63 125-63 3-35-9-54-41-54-24 1-41 7-42 31l-33-3c5-37 33-52 76-52 45 0 72 20 72 64v82c-1 20 7 32 28 27v20c-31 9-61-2-59-35zM48-53c0 20 12 33 32 33 41-3 63-29 60-74-43 2-92-5-92 41" id="aY"/><path d="M85-194c31 0 48 13 60 33l-1-100h32l1 261h-30c-2-10 0-23-3-31C134-8 116 4 85 4 32 4 16-35 15-94c0-66 23-100 70-100zm9 24c-40 0-46 34-46 75 0 40 6 74 45 74 42 0 51-32 51-76 0-42-9-74-50-73" id="aZ"/><g id="r"><use transform="matrix(0.05,0,0,0.05,0,0)" xlink:href="#aW"/><use transform="matrix(0.05,0,0,0.05,10,0)" xlink:href="#aX"/><use transform="matrix(0.05,0,0,0.05,20,0)" xlink:href="#aY"/><use transform="matrix(0.05,0,0,0.05,30,0)" xlink:href="#aZ"/></g><path d="M160-131c35 5 61 23 61 61C221 17 115-2 30 0v-248c76 3 177-17 177 60 0 33-19 50-47 57zm-97-11c50-1 110 9 110-42 0-47-63-36-110-37v79zm0 115c55-2 124 14 124-45 0-56-70-42-124-44v89" id="ba"/><path d="M24 0v-261h32V0H24" id="bb"/><path d="M117-194c89-4 53 116 60 194h-32v-121c0-31-8-49-39-48C34-167 62-67 57 0H25l-1-190h30c1 10-1 24 2 32 11-22 29-35 61-36" id="bc"/><path d="M96-169c-40 0-48 33-48 73s9 75 48 75c24 0 41-14 43-38l32 2c-6 37-31 61-74 61-59 0-76-41-82-99-10-93 101-131 147-64 4 7 5 14 7 22l-32 3c-4-21-16-35-41-35" id="bd"/><path d="M100-194c63 0 86 42 84 106H49c0 40 14 67 53 68 26 1 43-12 49-29l28 8c-11 28-37 45-77 45C44 4 14-33 15-96c1-61 26-98 85-98zm52 81c6-60-76-77-97-28-3 7-6 17-6 28h103" id="be"/><path d="M114-163C36-179 61-72 57 0H25l-1-190h30c1 12-1 29 2 39 6-27 23-49 58-41v29" id="bf"/><g id="s"><use transform="matrix(0.05,0,0,0.05,0,0)" xlink:href="#ba"/><use transform="matrix(0.05,0,0,0.05,12,0)" xlink:href="#aY"/><use transform="matrix(0.05,0,0,0.05,22,0)" xlink:href="#bb"/><use transform="matrix(0.05,0,0,0.05,25.950000000000003,0)" xlink:href="#aY"/><use transform="matrix(0.05,0,0,0.05,35.95,0)" xlink:href="#bc"/><use transform="matrix(0.05,0,0,0.05,45.95,0)" xlink:href="#bd"/><use transform="matrix(0.05,0,0,0.05,54.95,0)" xlink:href="#be"/><use transform="matrix(0.05,0,0,0.05,64.95,0)" xlink:href="#bf"/></g><path fill="#3a414a" d="M30-248c118-7 216 8 213 122C240-48 200 0 122 0H30v-248zM63-27c89 8 146-16 146-99s-60-101-146-95v194" id="bg"/><path fill="#3a414a" d="M190 0L58-211 59 0H30v-248h39L202-35l-2-213h31V0h-41" id="bh"/><path fill="#3a414a" d="M185-189c-5-48-123-54-124 2 14 75 158 14 163 119 3 78-121 87-175 55-17-10-28-26-33-46l33-7c5 56 141 63 141-1 0-78-155-14-162-118-5-82 145-84 179-34 5 7 8 16 11 25" id="bi"/><g id="t"><use transform="matrix(0.06172839506172839,0,0,0.06172839506172839,0,0)" xlink:href="#bg"/><use transform="matrix(0.06172839506172839,0,0,0.06172839506172839,15.987654320987653,0)" xlink:href="#bh"/><use transform="matrix(0.06172839506172839,0,0,0.06172839506172839,31.975308641975307,0)" xlink:href="#bi"/></g><linearGradient gradientUnits="userSpaceOnUse" id="u" x1="385.05" y1="403.58" x2="452.06" y2="335.51"><stop offset="0%" stop-color="#bd0816"/><stop offset="100%" stop-color="#ff5252"/></linearGradient><path d="M205 0l-28-72H64L36 0H1l101-248h38L239 0h-34zm-38-99l-47-123c-12 45-31 82-46 123h93" id="bj"/><path d="M84 4C-5 8 30-112 23-190h32v120c0 31 7 50 39 49 72-2 45-101 50-169h31l1 190h-30c-1-10 1-25-2-33-11 22-28 36-60 37" id="bk"/><path d="M59-47c-2 24 18 29 38 22v24C64 9 27 4 27-40v-127H5v-23h24l9-43h21v43h35v23H59v120" id="bl"/><path d="M106-169C34-169 62-67 57 0H25v-261h32l-1 103c12-21 28-36 61-36 89 0 53 116 60 194h-32v-121c2-32-8-49-39-48" id="bm"/><path d="M24-231v-30h32v30H24zM24 0v-190h32V0H24" id="bn"/><g id="v"><use transform="matrix(0.05,0,0,0.05,0,0)" xlink:href="#bj"/><use transform="matrix(0.05,0,0,0.05,12,0)" xlink:href="#bk"/><use transform="matrix(0.05,0,0,0.05,22,0)" xlink:href="#bl"/><use transform="matrix(0.05,0,0,0.05,27,0)" xlink:href="#bm"/><use transform="matrix(0.05,0,0,0.05,37,0)" xlink:href="#be"/><use transform="matrix(0.05,0,0,0.05,47,0)" xlink:href="#bc"/><use transform="matrix(0.05,0,0,0.05,57,0)" xlink:href="#bl"/><use transform="matrix(0.05,0,0,0.05,62,0)" xlink:href="#bn"/><use transform="matrix(0.05,0,0,0.05,65.95,0)" xlink:href="#bd"/><use transform="matrix(0.05,0,0,0.05,74.95,0)" xlink:href="#aY"/><use transform="matrix(0.05,0,0,0.05,84.95,0)" xlink:href="#bl"/><use transform="matrix(0.05,0,0,0.05,89.95,0)" xlink:href="#bn"/><use transform="matrix(0.05,0,0,0.05,93.9,0)" xlink:href="#aX"/><use transform="matrix(0.05,0,0,0.05,103.9,0)" xlink:href="#bc"/></g><linearGradient gradientUnits="userSpaceOnUse" id="w" x1="1151.43" y1="310.82" x2="1222.83" y2="246.73"><stop offset="0%" stop-color="#b0084d"/><stop offset="100%" stop-color="#ff4f8b"/></linearGradient><path d="M266 0h-40l-56-210L115 0H75L2-248h35L96-30l15-64 43-154h32l59 218 59-218h35" id="bo"/><path d="M185-189c-5-48-123-54-124 2 14 75 158 14 163 119 3 78-121 87-175 55-17-10-28-26-33-46l33-7c5 56 141 63 141-1 0-78-155-14-162-118-5-82 145-84 179-34 5 7 8 16 11 25" id="bp"/><g id="x"><use transform="matrix(0.05,0,0,0.05,0,0)" xlink:href="#bj"/><use transform="matrix(0.05,0,0,0.05,11.35,0)" xlink:href="#bo"/><use transform="matrix(0.05,0,0,0.05,28.299999999999997,0)" xlink:href="#bp"/></g><path d="M115-194c55 1 70 41 70 98S169 2 115 4C84 4 66-9 55-30l1 105H24l-1-265h31l2 30c10-21 28-34 59-34zm-8 174c40 0 45-34 45-75s-6-73-45-74c-42 0-51 32-51 76 0 43 10 73 51 73" id="bq"/><path d="M179-190L93 31C79 59 56 82 12 73V49c39 6 53-20 64-50L1-190h34L92-34l54-156h33" id="br"/><g id="y"><use transform="matrix(0.05,0,0,0.05,0,0)" xlink:href="#bj"/><use transform="matrix(0.05,0,0,0.05,12,0)" xlink:href="#bq"/><use transform="matrix(0.05,0,0,0.05,22,0)" xlink:href="#bq"/><use transform="matrix(0.05,0,0,0.05,32,0)" xlink:href="#bp"/><use transform="matrix(0.05,0,0,0.05,44,0)" xlink:href="#br"/><use transform="matrix(0.05,0,0,0.05,53,0)" xlink:href="#bc"/><use transform="matrix(0.05,0,0,0.05,63,0)" xlink:href="#bd"/></g><path fill="#3a414a" d="M205 0l-28-72H64L36 0H1l101-248h38L239 0h-34zm-38-99l-47-123c-12 45-31 82-46 123h93" id="bs"/><path fill="#3a414a" d="M210-169c-67 3-38 105-44 169h-31v-121c0-29-5-50-35-48C34-165 62-65 56 0H25l-1-190h30c1 10-1 24 2 32 10-44 99-50 107 0 11-21 27-35 58-36 85-2 47 119 55 194h-31v-121c0-29-5-49-35-48" id="bt"/><path fill="#3a414a" d="M9 0v-24l116-142H16v-24h144v24L44-24h123V0H9" id="bu"/><g id="z"><use transform="matrix(0.06172839506172839,0,0,0.06172839506172839,0,0)" xlink:href="#bs"/><use transform="matrix(0.06172839506172839,0,0,0.06172839506172839,14.814814814814813,0)" xlink:href="#bt"/><use transform="matrix(0.06172839506172839,0,0,0.06172839506172839,33.2716049382716,0)" xlink:href="#aM"/><use transform="matrix(0.06172839506172839,0,0,0.06172839506172839,45.61728395061728,0)" xlink:href="#bu"/><use transform="matrix(0.06172839506172839,0,0,0.06172839506172839,56.72839506172839,0)" xlink:href="#aG"/><use transform="matrix(0.06172839506172839,0,0,0.06172839506172839,69.07407407407408,0)" xlink:href="#aH"/></g><path fill="#3a414a" d="M179-190L93 31C79 59 56 82 12 73V49c39 6 53-20 64-50L1-190h34L92-34l54-156h33" id="bv"/><g id="A"><use transform="matrix(0.06172839506172839,0,0,0.06172839506172839,0,0)" xlink:href="#bg"/><use transform="matrix(0.06172839506172839,0,0,0.06172839506172839,15.987654320987653,0)" xlink:href="#bv"/><use transform="matrix(0.06172839506172839,0,0,0.06172839506172839,27.098765432098766,0)" xlink:href="#aH"/><use transform="matrix(0.06172839506172839,0,0,0.06172839506172839,39.44444444444444,0)" xlink:href="#aM"/><use transform="matrix(0.06172839506172839,0,0,0.06172839506172839,51.79012345679012,0)" xlink:href="#bt"/><use transform="matrix(0.06172839506172839,0,0,0.06172839506172839,70.24691358024691,0)" xlink:href="#aG"/><use transform="matrix(0.06172839506172839,0,0,0.06172839506172839,82.5925925925926,0)" xlink:href="#bg"/><use transform="matrix(0.06172839506172839,0,0,0.06172839506172839,98.58024691358025,0)" xlink:href="#aL"/></g><path fill="#3a414a" d="M233-177c-1 41-23 64-60 70L243 0h-38l-65-103H63V0H30v-248c88 3 205-21 203 71zM63-129c60-2 137 13 137-47 0-61-80-42-137-45v92" id="bw"/><g id="B"><use transform="matrix(0.06172839506172839,0,0,0.06172839506172839,0,0)" xlink:href="#bw"/><use transform="matrix(0.06172839506172839,0,0,0.06172839506172839,15.987654320987653,0)" xlink:href="#bg"/><use transform="matrix(0.06172839506172839,0,0,0.06172839506172839,31.975308641975307,0)" xlink:href="#bi"/></g><path fill="#3a414a" d="M100-194c63 0 86 42 84 106H49c0 40 14 67 53 68 26 1 43-12 49-29l28 8c-11 28-37 45-77 45C44 4 14-33 15-96c1-61 26-98 85-98zm52 81c6-60-76-77-97-28-3 7-6 17-6 28h103" id="bx"/><path fill="#3a414a" d="M108 0H70L1-190h34L89-25l56-165h34" id="by"/><path fill="#3a414a" d="M24 0v-261h32V0H24" id="bz"/><path fill="#3a414a" d="M135-143c-3-34-86-38-87 0 15 53 115 12 119 90S17 21 10-45l28-5c4 36 97 45 98 0-10-56-113-15-118-90-4-57 82-63 122-42 12 7 21 19 24 35" id="bA"/><g id="C"><use transform="matrix(0.06172839506172839,0,0,0.06172839506172839,0,0)" xlink:href="#bi"/><use transform="matrix(0.06172839506172839,0,0,0.06172839506172839,14.814814814814813,0)" xlink:href="#bx"/><use transform="matrix(0.06172839506172839,0,0,0.06172839506172839,27.160493827160494,0)" xlink:href="#aF"/><use transform="matrix(0.06172839506172839,0,0,0.06172839506172839,34.50617283950617,0)" xlink:href="#by"/><use transform="matrix(0.06172839506172839,0,0,0.06172839506172839,45.61728395061728,0)" xlink:href="#bx"/><use transform="matrix(0.06172839506172839,0,0,0.06172839506172839,57.962962962962955,0)" xlink:href="#aF"/><use transform="matrix(0.06172839506172839,0,0,0.06172839506172839,65.30864197530863,0)" xlink:href="#bz"/><use transform="matrix(0.06172839506172839,0,0,0.06172839506172839,70.18518518518518,0)" xlink:href="#bx"/><use transform="matrix(0.06172839506172839,0,0,0.06172839506172839,82.53086419753086,0)" xlink:href="#bA"/><use transform="matrix(0.06172839506172839,0,0,0.06172839506172839,93.64197530864197,0)" xlink:href="#bA"/></g><path fill="#3a414a" d="M212-179c-10-28-35-45-73-45-59 0-87 40-87 99 0 60 29 101 89 101 43 0 62-24 78-52l27 14C228-24 195 4 139 4 59 4 22-46 18-125c-6-104 99-153 187-111 19 9 31 26 39 46" id="bB"/><path fill="#3a414a" d="M106-169C34-169 62-67 57 0H25v-261h32l-1 103c12-21 28-36 61-36 89 0 53 116 60 194h-32v-121c2-32-8-49-39-48" id="bC"/><g id="D"><use transform="matrix(0.06172839506172839,0,0,0.06172839506172839,0,0)" xlink:href="#bB"/><use transform="matrix(0.06172839506172839,0,0,0.06172839506172839,15.987654320987653,0)" xlink:href="#aM"/><use transform="matrix(0.06172839506172839,0,0,0.06172839506172839,28.333333333333332,0)" xlink:href="#aN"/><use transform="matrix(0.06172839506172839,0,0,0.06172839506172839,39.44444444444444,0)" xlink:href="#bC"/><use transform="matrix(0.06172839506172839,0,0,0.06172839506172839,51.79012345679012,0)" xlink:href="#bx"/></g><path d="M212-179c-10-28-35-45-73-45-59 0-87 40-87 99 0 60 29 101 89 101 43 0 62-24 78-52l27 14C228-24 195 4 139 4 59 4 22-46 18-125c-6-104 99-153 187-111 19 9 31 26 39 46" id="bD"/><g id="E"><use transform="matrix(0.05,0,0,0.05,0,0)" xlink:href="#bD"/><use transform="matrix(0.05,0,0,0.05,12.950000000000001,0)" xlink:href="#bb"/><use transform="matrix(0.05,0,0,0.05,16.900000000000002,0)" xlink:href="#bn"/><use transform="matrix(0.05,0,0,0.05,20.85,0)" xlink:href="#be"/><use transform="matrix(0.05,0,0,0.05,30.85,0)" xlink:href="#bc"/><use transform="matrix(0.05,0,0,0.05,40.85,0)" xlink:href="#bl"/></g><path fill="#333" d="M133-34C117-15 103 5 69 4 32 3 11-16 11-54c-1-60 55-63 116-61 1-26-3-47-28-47-18 1-26 9-28 27l-52-2c7-38 36-58 82-57s74 22 75 68l1 82c-1 14 12 18 25 15v27c-30 8-71 5-69-32zm-48 3c29 0 43-24 42-57-32 0-66-3-65 30 0 17 8 27 23 27" id="bE"/><path fill="#333" d="M135-194c53 0 70 44 70 98 0 56-19 98-73 100-31 1-45-17-59-34 3 33 2 69 2 105H25l-1-265h48c2 10 0 23 3 31 11-24 29-35 60-35zM114-30c33 0 39-31 40-66 0-38-9-64-40-64-56 0-55 130 0 130" id="bF"/><path fill="#333" d="M24 0v-54h51V0H24" id="bG"/><g id="F"><use transform="matrix(0.04938271604938272,0,0,0.04938271604938272,0,0)" xlink:href="#bE"/><use transform="matrix(0.04938271604938272,0,0,0.04938271604938272,9.876543209876544,0)" xlink:href="#bF"/><use transform="matrix(0.04938271604938272,0,0,0.04938271604938272,20.69135802469136,0)" xlink:href="#bF"/><use transform="matrix(0.04938271604938272,0,0,0.04938271604938272,31.506172839506174,0)" xlink:href="#bG"/></g><path fill="#333" d="M25-224v-37h50v37H25zM25 0v-190h50V0H25" id="bH"/><g id="G"><use transform="matrix(0.04938271604938272,0,0,0.04938271604938272,0,0)" xlink:href="#bE"/><use transform="matrix(0.04938271604938272,0,0,0.04938271604938272,9.876543209876544,0)" xlink:href="#bF"/><use transform="matrix(0.04938271604938272,0,0,0.04938271604938272,20.69135802469136,0)" xlink:href="#bH"/><use transform="matrix(0.04938271604938272,0,0,0.04938271604938272,25.629629629629633,0)" xlink:href="#bG"/></g><path fill="#3a414a" d="M67-125c0 53 21 87 73 88 37 1 54-22 65-47l45 17C233-25 199 4 140 4 58 4 20-42 15-125 8-235 124-281 211-232c18 10 29 29 36 50l-46 12c-8-25-30-41-62-41-52 0-71 34-72 86" id="bI"/><path fill="#3a414a" d="M240-174c0 40-23 61-54 70L253 0h-59l-57-94H76V0H24v-248c93 4 217-23 216 74zM76-134c48-2 112 12 112-38 0-48-66-32-112-35v73" id="bJ"/><path fill="#3a414a" d="M238-95c0 69-44 99-111 99C63 4 22-25 22-93v-155h51v151c-1 38 19 59 55 60 90 1 49-130 58-211h52v153" id="bK"/><path fill="#3a414a" d="M24-248c120-7 223 5 221 122C244-46 201 0 124 0H24v-248zM76-40c74 7 117-18 117-86 0-67-45-88-117-82v168" id="bL"/><g id="H"><use transform="matrix(0.07407407407407407,0,0,0.07407407407407407,0,0)" xlink:href="#bI"/><use transform="matrix(0.07407407407407407,0,0,0.07407407407407407,19.185185185185183,0)" xlink:href="#bJ"/><use transform="matrix(0.07407407407407407,0,0,0.07407407407407407,38.37037037037037,0)" xlink:href="#bK"/><use transform="matrix(0.07407407407407407,0,0,0.07407407407407407,57.55555555555555,0)" xlink:href="#bL"/><use transform="matrix(0.07407407407407407,0,0,0.07407407407407407,76.74074074074073,0)" xlink:href="#bL"/><use transform="matrix(0.07407407407407407,0,0,0.07407407407407407,95.92592592592592,0)" xlink:href="#bK"/><use transform="matrix(0.07407407407407407,0,0,0.07407407407407407,115.11111111111113,0)" xlink:href="#bJ"/></g><path fill="#3a414a" d="M199 0l-22-63H83L61 0H9l90-248h61L250 0h-51zm-33-102l-36-108c-10 38-24 72-36 108h72" id="bM"/><path fill="#3a414a" d="M24-248c93 1 206-16 204 79-1 75-69 88-152 82V0H24v-248zm52 121c47 0 100 7 100-41 0-47-54-39-100-39v80" id="bN"/><g id="I"><use transform="matrix(0.07407407407407407,0,0,0.07407407407407407,0,0)" xlink:href="#bM"/><use transform="matrix(0.07407407407407407,0,0,0.07407407407407407,19.185185185185183,0)" xlink:href="#bN"/><use transform="matrix(0.07407407407407407,0,0,0.07407407407407407,36.96296296296296,0)" xlink:href="#bN"/></g><path fill="#3a414a" d="M24 0v-248h52v208h133V0H24" id="bO"/><path fill="#3a414a" d="M140-251c80 0 125 45 125 126S219 4 139 4C58 4 15-44 15-125s44-126 125-126zm-1 214c52 0 73-35 73-88 0-50-21-86-72-86-52 0-73 35-73 86s22 88 72 88" id="bP"/><path fill="#3a414a" d="M67-125c0 54 23 88 75 88 28 0 53-7 68-21v-34h-60v-39h108v91C232-14 192 4 140 4 58 4 20-42 15-125 8-236 126-280 215-234c19 10 29 26 37 47l-47 15c-11-23-29-39-63-39-53 1-75 33-75 86" id="bQ"/><path fill="#3a414a" d="M24 0v-248h52V0H24" id="bR"/><g id="J"><use transform="matrix(0.07407407407407407,0,0,0.07407407407407407,0,0)" xlink:href="#bO"/><use transform="matrix(0.07407407407407407,0,0,0.07407407407407407,16.22222222222222,0)" xlink:href="#bP"/><use transform="matrix(0.07407407407407407,0,0,0.07407407407407407,36.96296296296296,0)" xlink:href="#bQ"/><use transform="matrix(0.07407407407407407,0,0,0.07407407407407407,57.7037037037037,0)" xlink:href="#bR"/><use transform="matrix(0.07407407407407407,0,0,0.07407407407407407,65.11111111111111,0)" xlink:href="#bI"/><use transform="matrix(0.07407407407407407,0,0,0.07407407407407407,84.2962962962963,0)" xlink:href="#bM"/><use transform="matrix(0.07407407407407407,0,0,0.07407407407407407,103.4814814814815,0)" xlink:href="#bO"/></g><path fill="#3a414a" d="M230 0l2-204L168 0h-37L68-204 70 0H24v-248h70l56 185 57-185h69V0h-46" id="bS"/><g id="K"><use transform="matrix(0.07407407407407407,0,0,0.07407407407407407,0,0)" xlink:href="#bL"/><use transform="matrix(0.07407407407407407,0,0,0.07407407407407407,19.185185185185183,0)" xlink:href="#bR"/><use transform="matrix(0.07407407407407407,0,0,0.07407407407407407,26.592592592592588,0)" xlink:href="#bM"/><use transform="matrix(0.07407407407407407,0,0,0.07407407407407407,45.77777777777778,0)" xlink:href="#bQ"/><use transform="matrix(0.07407407407407407,0,0,0.07407407407407407,66.5185185185185,0)" xlink:href="#bJ"/><use transform="matrix(0.07407407407407407,0,0,0.07407407407407407,85.7037037037037,0)" xlink:href="#bM"/><use transform="matrix(0.07407407407407407,0,0,0.07407407407407407,104.88888888888889,0)" xlink:href="#bS"/></g></defs></g></svg>